<?xml version="1.0" standalone="no"?>
<!DOCTYPE svg PUBLIC "-//W3C//DTD SVG 1.1//EN" "http://www.w3.org/Graphics/SVG/1.1/DTD/svg11.dtd" >

<svg>
<metadata>
Created by webfont
</metadata>
<defs>

<font id="Noto Sans S Chinese DemiLight" horiz-adv-x="1000" vert-adv-y="1000" >
  <font-face
    
    font-family="Noto Sans S Chinese DemiLight"
    
    font-weight="350"
    
    font-stretch="normal"
    
    units-per-em="1000"
    
    panose-1="0 0 0 0 0 0 0 0 0 0"
    
    ascent="880"
    
    descent="-120"
    
    x-height="540"
    
    cap-height="732"
    
    bbox="-1000 -1048 2928 1808"
    
    underline-thickness="50"
    
    underline-position="-100"
    
    unicode-range="U+0001-2CE93"
    
  />
    <missing-glyph />
    
    <glyph glyph-name="cid17" unicode="&#x30;" d="M275 53q32 0 58.5 18.5t45.5 57.5t29.5 98.5t10.5 141.5q0 80 -10.5 138.5t-29.5 96.5t-45.5 56.5t-58.5 18.5q-65 0 -105.5 -75t-40.5 -235q0 -164 40.5 -240t105.5 -76zM275 -13q-104 0 -164.5 95t-60.5 287q0 190 60.5 283t164.5 93q103 0 163 -93t60 -283
q0 -192 -60 -287t-163 -95z"  horiz-adv-x="549"   />

    
    <glyph glyph-name="cid1390" unicode="&#x3001;" d="M276 -54q-24 30 -52 61t-57 60t-57.5 55t-55.5 48l58 51q27 -22 56.5 -49t59 -56t57.5 -59.5t52 -58.5z"     />

    
    <glyph glyph-name="cid1391" unicode="&#x3002;" d="M194 -11q44 0 74 30t30 74q0 21 -8 39.5t-22 33t-33 22.5t-41 8q-21 0 -39.5 -8t-33 -22.5t-22.5 -33t-8 -39.5q0 -22 8 -41t22.5 -33t33 -22t39.5 -8zM194 243q31 0 59 -12t48 -32t32 -47.5t12 -58.5q0 -32 -12 -59.5t-32 -47.5t-48 -32t-59 -12t-58 12t-47.5 32
t-32.5 47.5t-12 59.5q0 31 12 58.5t32.5 47.5t47.5 32t58 12z"     />

    
    <glyph glyph-name="cid1399" unicode="&#x300A;" d="M962 -68l-49 -17l-226 465l226 465l49 -17l-220 -448zM807 -68l-49 -17l-226 465l226 465l49 -17l-220 -448z"     />

    
    <glyph glyph-name="cid1400" unicode="&#x300B;" d="M38 -68l220 448l-220 448l49 17l226 -465l-226 -465zM193 -68l220 448l-220 448l49 17l226 -465l-226 -465z"     />

    
    <glyph glyph-name="cid18" unicode="&#x31;" d="M89 68h164v561h-129v53q92 16 148 50h62v-664h149v-68h-394v68z"  horiz-adv-x="549"   />

    
    <glyph glyph-name="cid19" unicode="&#x32;" d="M45 49q175 153 256.5 268.5t81.5 210.5q0 32 -8.5 59.5t-26 48t-43.5 32t-61 11.5q-46 0 -85 -25t-71 -62l-48 46q45 48 94.5 77.5t118.5 29.5q49 0 88 -15t66 -43t41.5 -67.5t14.5 -88.5q0 -56 -21 -112t-59.5 -114t-93 -118t-121.5 -123q29 3 60.5 4.5t59.5 1.5h210
v-70h-453v49z"  horiz-adv-x="549"   />

    
    <glyph glyph-name="cid20" unicode="&#x33;" d="M262 -13q-43 0 -78 8.5t-63.5 22.5t-50.5 32t-40 37l42 53q32 -33 76 -59t109 -26q67 0 110 38t43 104q0 34 -12.5 62t-40 48t-71.5 31t-108 11v64q57 0 96.5 11t64 30.5t35 46t10.5 57.5q0 55 -34 88.5t-94 33.5q-45 0 -84 -21t-70 -53l-45 53q41 37 90 62t112 25
q45 0 83 -12t66 -35.5t43.5 -57.5t15.5 -77q0 -69 -36 -113t-95 -65v-4q32 -8 60.5 -23.5t49.5 -39.5t33.5 -55t12.5 -69q0 -49 -18 -87.5t-49 -65.5t-73 -41t-90 -14z"  horiz-adv-x="549"   />

    
    <glyph glyph-name="cid21" unicode="&#x34;" d="M517 204h-100v-204h-77v204h-321v53l311 475h87v-463h100v-65zM340 269v238q0 27 2 65t4 65h-5q-14 -26 -27.5 -53.5t-30.5 -52.5l-177 -262h234z"  horiz-adv-x="549"   />

    
    <glyph glyph-name="cid22" unicode="&#x35;" d="M259 -13q-43 0 -77.5 8.5t-62.5 22t-50.5 31t-40.5 35.5l41 54q31 -32 74.5 -57.5t108.5 -25.5q33 0 62.5 12.5t51 36t34.5 57t13 74.5q0 81 -42.5 127t-114.5 46q-38 0 -65 -11.5t-59 -32.5l-45 28l23 340h350v-70h-278l-20 -222q26 14 52.5 22.5t61.5 8.5q45 0 85 -14
t70 -42.5t47 -72.5t17 -105q0 -60 -20 -106.5t-53 -78.5t-75.5 -48.5t-87.5 -16.5z"  horiz-adv-x="549"   />

    
    <glyph glyph-name="cid23" unicode="&#x36;" d="M446 621q-23 26 -54 41t-64 15q-39 0 -73.5 -16t-60.5 -53t-42.5 -96.5t-17.5 -147.5q35 42 79.5 65.5t89.5 23.5q94 0 148 -57.5t54 -172.5q0 -53 -16.5 -96t-45 -74.5t-65.5 -48.5t-79 -17q-53 0 -97.5 23t-76.5 68t-50 112.5t-18 157.5q0 108 22 184t59.5 123
t85.5 68.5t101 21.5q55 0 96 -20.5t71 -52.5zM299 52q27 0 50.5 12.5t41 35t27 54t9.5 69.5q0 77 -33 123t-104 46q-35 0 -75.5 -22t-78.5 -75q8 -117 49 -180t114 -63z"  horiz-adv-x="549"   />

    
    <glyph glyph-name="cid24" unicode="&#x37;" d="M200 0q4 106 17 194.5t37.5 167.5t62 152t91.5 148h-359v70h453v-49q-65 -84 -105.5 -161t-63.5 -157t-33.5 -169t-14.5 -196h-85v0z"  horiz-adv-x="549"   />

    
    <glyph glyph-name="cid25" unicode="&#x38;" d="M278 48q33 0 60 9.5t46.5 27t30 41t10.5 51.5q0 38 -16.5 65.5t-44 48t-63.5 37t-76 32.5q-47 -29 -76.5 -73t-29.5 -99q0 -30 12 -55.5t33.5 -44.5t50.5 -29.5t63 -10.5zM327 394q80 68 80 152q0 28 -8.5 52.5t-25 43t-41 29t-55.5 10.5q-52 0 -86 -34t-34 -89
q0 -34 14.5 -59t38 -44t54 -33.5t63.5 -27.5zM277 -13q-50 0 -92.5 14.5t-73.5 40.5t-48.5 62t-17.5 78q0 37 12 68.5t31 57t43.5 45t49.5 33.5v4q-40 27 -69.5 68.5t-29.5 99.5q0 41 15 75t41.5 58.5t62.5 38t78 13.5q46 0 83 -14.5t63 -40t39.5 -61t13.5 -77.5
q0 -29 -9.5 -55.5t-24 -49.5t-32 -41.5t-33.5 -31.5v-5q24 -14 46.5 -31.5t39.5 -41t27.5 -53t10.5 -66.5q0 -39 -16.5 -73.5t-46 -60t-71 -40t-92.5 -14.5z"  horiz-adv-x="549"   />

    
    <glyph glyph-name="cid26" unicode="&#x39;" d="M104 111q24 -26 56 -41t69 -15q36 0 69 16.5t58.5 53.5t41.5 97.5t19 149.5q-35 -42 -79.5 -67.5t-92.5 -25.5q-92 0 -146 58t-54 172q0 52 16.5 95.5t44.5 75t65.5 48.5t79.5 17q53 0 97.5 -21.5t77 -65t50.5 -108t18 -150.5q0 -113 -22 -191.5t-58.5 -127.5t-84 -71.5
t-98.5 -22.5q-58 0 -100 20.5t-72 52.5zM258 340q38 0 79 23.5t79 77.5q-6 115 -48 177.5t-117 62.5q-27 0 -50.5 -12.5t-41 -35t-27 -54.5t-9.5 -70q0 -76 33 -122.5t102 -46.5z"  horiz-adv-x="549"   />

    
    <glyph glyph-name="cid27" unicode="&#x3a;" d="M134 -13q-25 0 -43 17.5t-18 46.5q0 30 18 48t43 18q26 0 44 -18t18 -48q0 -29 -18 -46.5t-44 -17.5zM134 395q-25 0 -43 17.5t-18 46.5q0 30 18 48t43 18q26 0 44 -18t18 -48q0 -29 -18 -46.5t-44 -17.5z"  horiz-adv-x="270"   />

    
    <glyph glyph-name="cid36" unicode="&#x43;" d="M374 -13q-68 0 -125.5 26t-99.5 74.5t-66 119t-24 159.5q0 88 24 158.5t67 119.5t102 75t128 26q67 0 117 -27t82 -62l-46 -54q-29 32 -66.5 51t-85.5 19q-54 0 -97.5 -21t-74.5 -60.5t-48 -96t-17 -126.5q0 -71 16.5 -128t46.5 -97t73.5 -61.5t97.5 -21.5t95.5 21.5
t77.5 62.5l46 -52q-43 -51 -97 -78t-126 -27z"  horiz-adv-x="634"   />

    
    <glyph glyph-name="cid37" unicode="&#x44;" d="M275 68q67 0 116.5 20.5t82.5 59.5t49 95t16 126q0 141 -65 218t-199 77h-90v-596h90zM102 732h180q84 0 148 -24.5t107 -71t65 -114t22 -153.5t-22 -154.5t-64.5 -116t-106 -73t-146.5 -25.5h-183v732z"  horiz-adv-x="683"   />

    
    <glyph glyph-name="cid41" unicode="&#x48;" d="M102 732h83v-310h353v310h82v-732h-82v350h-353v-350h-83v732z"  horiz-adv-x="722"   />

    
    <glyph glyph-name="cid47" unicode="&#x4e;" d="M102 732h85l277 -474l79 -150h5q-4 55 -7.5 113t-3.5 115v396h79v-732h-86l-275 474l-80 150h-5q3 -55 6.5 -110.5t3.5 -112.5v-401h-78v732z"  horiz-adv-x="718"   />

    
    <glyph glyph-name="uni4E00" unicode="&#x4E00;" d="M953 425v-72h-905v72h905z"     />

    
    <glyph glyph-name="cid9835" unicode="&#x4E03;" d="M765 26q25 0 40 7.5t24 27.5t13.5 54.5t7.5 88.5q14 -10 34 -18.5t34 -12.5q-5 -60 -12.5 -100.5t-24 -65.5t-44 -36t-72.5 -11h-268q-45 0 -74.5 6.5t-47.5 22.5t-25.5 43.5t-7.5 69.5v313l-277 -44l-12 65l289 47v336h71v-325l526 86l10 -67l-536 -86v-327
q0 -22 3.5 -36.5t12.5 -22.5t26 -11.5t44 -3.5h266z"     />

    
    <glyph glyph-name="cid9842" unicode="&#x4E09;" d="M928 67v-67h-860v67h860zM798 413v-67h-610v67h610zM876 738v-67h-750v67h750z"     />

    
    <glyph glyph-name="cid9844" unicode="&#x4E0B;" d="M515 695v-178l11 13q45 -22 95 -49t98.5 -55.5t91.5 -56t73 -49.5l-46 -61q-26 21 -63.5 47t-80.5 52.5t-89.5 53t-89.5 49.5v-533h-70v767h-386v67h883v-67h-427z"     />

    
    <glyph glyph-name="cid9846" unicode="&#x4E0D;" d="M610 525q45 -29 94 -62.5t95.5 -69t87 -69.5t67.5 -62l-52 -50q-27 28 -66.5 63t-85.5 71t-95 71.5t-94 64.5zM608 697q-17 -29 -35 -56.5t-38 -56.5v-658h-71v569q-77 -89 -170 -165.5t-199 -133.5q-8 12 -21.5 29t-24.5 28q75 37 144.5 87t130 107.5t111.5 121
t89 128.5h-451v67h855v-67h-320z"     />

    
    <glyph glyph-name="cid9848" unicode="&#x4E0E;" d="M881 411q-10 -107 -20.5 -183.5t-23 -128.5t-27 -83t-31.5 -47q-18 -18 -38 -24.5t-51 -8.5q-13 -1 -32.5 -1t-42.5 1t-49 2t-52 3q-2 15 -8 33.5t-17 32.5q29 -3 57.5 -4.5t52.5 -2t42.5 -1t29.5 -0.5q19 0 31 2t21 10q14 12 26 38t22.5 70.5t20.5 109t19 152.5h-588
l-55 1q12 41 25 94.5t25.5 111.5t24.5 116t21 109l66 -7q-5 -26 -10 -54t-11 -57h562v-64h-576q-11 -50 -21 -97.5t-21 -89.5h631zM681 170h-619v64h619v-64z"     />

    
    <glyph glyph-name="cid9870" unicode="&#x4E1C;" d="M720 264q30 -29 61 -62t60 -66.5t53 -65t40 -57.5l-58 -34q-15 26 -39 58.5t-52 67t-58.5 68t-60.5 62.5zM578 344v-324q0 -32 -8.5 -49t-29.5 -25q-23 -9 -60 -11t-91 -2q-2 15 -9.5 34.5t-15.5 34.5q45 -1 80 -1.5t47 0.5t16 5t4 15v323h-223q-89 0 -106 -14
q-3 11 -10 33t-15 36q17 5 34 25.5t40 53.5q12 17 39.5 60.5t58.5 100.5h-247v64h279q17 33 33 68t30 70l68 -31q-11 -26 -24 -53.5t-27 -53.5h470v-64h-503q-34 -63 -70.5 -121t-72.5 -109h246v150h67v-150h292v-65h-292zM329 244q-18 -39 -41 -77.5t-48.5 -74t-52.5 -67.5
t-54 -57q-10 8 -26.5 22t-29.5 22q56 46 105.5 112.5t81.5 137.5z"     />

    
    <glyph glyph-name="cid9882" unicode="&#x4E25;" d="M684 495q13 19 27 43t27.5 50t25.5 51.5t21 47.5l68 -23q-13 -24 -28 -50t-30 -51t-30 -48t-28 -41zM240 476q-5 19 -13.5 43t-20 48.5t-26 49.5t-29.5 46l56 20q16 -21 30.5 -45.5t26.5 -49t21 -48t14 -42.5zM933 392h-749v-107q0 -40 -4 -87t-14.5 -95t-30 -94
t-50.5 -84q-8 10 -24.5 24.5t-26.5 21.5q28 35 45 75t26 81.5t11.5 82t2.5 75.5v167h243v267h-253v59h793v-59h-266v-267h297v-60zM427 452h143v267h-143v-267z"     />

    
    <glyph glyph-name="cid9893" unicode="&#x4E2D;" d="M897 657v-463h-68v58h-297v-326h-69v326h-296v-63h-66v468h362v179h69v-179h365zM463 318v274h-296v-274h296zM829 318v274h-297v-274h297z"     />

    
    <glyph glyph-name="cid9902" unicode="&#x4E32;" d="M895 366v-315h-71v40h-292v-166h-69v166h-285v-42h-68v317h353v87h-314v266h314v116h69v-116h318v-266h-318v-87h363zM532 659v-146h248v146h-248zM463 513v146h-247v-146h247zM463 152v153h-285v-153h285zM824 152v153h-292v-153h292z"     />

    
    <glyph glyph-name="cid9913" unicode="&#x4E3A;" d="M641 176q-10 20 -25.5 45t-34 51t-39 52.5t-39.5 49.5l53 27q20 -22 41 -47.5t40.5 -51t35.5 -50t26 -43.5zM896 595q-1 -7 -1 -14v-21q-6 -151 -12 -255t-14 -172.5t-18.5 -106t-25.5 -54.5q-16 -19 -34 -27t-44 -10t-69.5 -0.5t-88.5 3.5q-2 16 -7.5 35t-15.5 34
q51 -5 94 -6t61 -1q16 0 25.5 2.5t17.5 12.5q12 11 21 44t16 93.5t13 153t11 223.5h-351q-9 -73 -30 -150t-63 -153.5t-108 -149.5t-163 -138q-8 11 -23.5 25.5t-28.5 22.5q92 60 154.5 127t102.5 137t61 140.5t30 138.5h-319v66h326q2 33 3 64t1 60v115h67v-116
q0 -29 -1 -60t-3 -63h416zM276 632q-8 15 -19.5 34t-26 39t-30.5 40t-31 37l57 26q15 -17 31 -36t31 -38.5t27.5 -38.5t20.5 -34z"     />

    
    <glyph glyph-name="cid9939" unicode="&#x4E4B;" d="M860 606q-46 -68 -109.5 -140t-136 -140t-151.5 -129t-156 -108q8 -5 16 -11t16 -11q48 -31 109.5 -39t146.5 -8q45 0 93.5 1.5t96 3.5t92 5.5t80.5 6.5q-5 -13 -11.5 -35t-7.5 -36q-28 -2 -72 -4t-93 -3.5t-96.5 -2.5t-83.5 -1q-91 0 -155 11t-114 43q-30 19 -53 38.5
t-40 19.5q-12 0 -26.5 -10t-31 -27t-34.5 -39t-36 -47l-50 60q50 54 95.5 89.5t83.5 35.5q5 0 15 -2q69 40 139.5 92.5t136.5 111.5t124 120.5t100 119.5h-642v65h691l14 4zM525 642q-8 16 -20 37t-26 43.5t-29 44.5t-30 42l58 30q15 -20 31 -42t30 -43.5t26 -41.5t20 -36z
"     />

    
    <glyph glyph-name="cid9945" unicode="&#x4E50;" d="M750 276q27 -29 57 -63t57.5 -67.5t51.5 -65.5t40 -57l-60 -32q-15 25 -38.5 57.5t-50.5 67t-56 69.5t-57 65zM553 368v-355q0 -33 -9 -50t-31 -25q-23 -9 -62.5 -11t-104.5 -2q-3 14 -9.5 33.5t-14.5 33.5q49 -2 88 -1.5t52 0.5q13 1 18.5 5.5t5.5 16.5v355h-239
q-102 0 -116 -13q-3 11 -10 31t-13 33q10 3 17 20t14 43q3 12 9 40.5t12 66t10.5 81.5t4.5 87q85 2 177 7t179.5 13t165 19.5t133.5 26.5l40 -58q-59 -15 -134 -26.5t-158 -19.5t-169.5 -13t-167.5 -7q-6 -69 -19 -137.5t-27 -126.5h291v205h67v-205h368v-67h-368zM305 256
q-21 -36 -46.5 -72.5t-52.5 -71.5t-55 -66.5t-54 -57.5q-9 8 -26 21.5t-28 21.5q26 24 53.5 53t53.5 61t49.5 65.5t42.5 66.5z"     />

    
    <glyph glyph-name="cid10027" unicode="&#x4E86;" d="M887 722q-33 -36 -74.5 -73t-87 -71.5t-94 -66t-94.5 -56.5v-441q0 -36 -10.5 -53t-38.5 -25q-29 -8 -78 -10t-126 -2q-3 15 -11.5 34t-16.5 33q32 -1 62 -1.5t54.5 -0.5t42 0.5t26.5 0.5q16 1 21.5 6t5.5 18v474q37 18 76 41.5t76.5 50.5t72 55t63.5 55h-656v65h720
l15 4z"     />

    
    <glyph glyph-name="cid10034" unicode="&#x4E8B;" d="M950 209h-103v-177h-67v45h-249v-74q0 -34 -10 -48.5t-32 -22.5q-23 -8 -63 -9.5t-103 -1.5q-2 13 -9.5 29t-14.5 28q48 -2 87.5 -1.5t52.5 1.5q14 1 19.5 6t5.5 19v74h-327v52h327v80h-412v54h412v75h-318v51h318v74h-289v172h289v62h-394v56h394v82h67v-82h401v-56
h-401v-62h301v-172h-301v-74h316v-126h103v-54zM531 587v-76h233v76h-233zM464 511v76h-225v-76h225zM531 263h249v75h-249v-75zM780 209h-249v-80h249v80z"     />

    
    <glyph glyph-name="uni4E8C" unicode="&#x4E8C;" d="M941 100v-73h-881v73h881zM857 692v-71h-713v71h713z"     />

    
    <glyph glyph-name="cid10037" unicode="&#x4E8E;" d="M943 370h-400v-345q0 -38 -11.5 -56.5t-38.5 -26.5q-27 -9 -75.5 -11t-125.5 -1q-4 14 -12.5 34t-16.5 35q31 -1 60.5 -1.5t53.5 -0.5t42 0.5t26 0.5q16 1 22.5 6.5t6.5 20.5v345h-416v66h416v261h-347v66h746v-66h-330v-261h400v-66z"     />

    
    <glyph glyph-name="cid10045" unicode="&#x4E92;" d="M947 27v-65h-890v65h576q6 38 12.5 80.5t12.5 86.5h-456q12 49 26 113t28 133t27 139t23 132h-216v64h827v-64h-540q-7 -39 -15 -80.5t-16 -85.5h360l12 3l49 -6q-5 -50 -12.5 -113.5t-16 -132t-18.5 -138t-19 -131.5h246zM666 257q8 62 15 119.5t12 105.5h-359
q-11 -60 -22.5 -117.5t-22.5 -107.5h377z"     />

    
    <glyph glyph-name="cid10048" unicode="&#x4E94;" d="M943 46v-66h-883v66h246q15 70 31 157t31 180h-189v65h200q9 58 17.5 115t15.5 109h-288v66h746v-66h-387q-8 -53 -16.5 -109.5t-17.5 -114.5h264l11 3l50 -5q-2 -41 -6 -90.5t-9 -102t-10.5 -105.5t-11.5 -102h206zM438 383q-15 -94 -30.5 -181t-29.5 -156h291
q4 41 9 85.5t9 88.5t7.5 86t6.5 77h-263z"     />

    
    <glyph glyph-name="cid10076" unicode="&#x4EA4;" d="M721 409q-31 -78 -72.5 -141.5t-95.5 -114.5q154 -120 401 -161q-11 -11 -22.5 -29t-18.5 -32q-126 24 -227.5 68t-182.5 110q-83 -66 -186 -111t-227 -77q-3 6 -7.5 14.5t-10 17t-11.5 16.5t-11 13q123 26 224 67t181 104q-104 101 -165 250l60 19q53 -134 154 -227
q49 48 86.5 105t63.5 128zM387 571q-25 -32 -56.5 -64t-65.5 -62t-69.5 -57t-68.5 -48q-8 10 -24 25.5t-27 24.5q33 19 67.5 42.5t67 50.5t61.5 55.5t52 57.5zM673 596q34 -23 71.5 -51t72 -57t64.5 -57t50 -52l-55 -43q-19 24 -48 52.5t-63 58.5t-71 58.5t-72 52.5z
M928 631h-857v65h419q-10 26 -29 61.5t-39 64.5l61 22q11 -15 22 -32t21 -34t18 -33t13 -29l-50 -20h421v-65z"     />

    
    <glyph glyph-name="cid10093" unicode="&#x4EAE;" d="M933 738v-57h-869v57h422q-8 20 -20.5 44t-26.5 44l65 15q17 -23 33 -52.5t24 -50.5h372zM802 622v-189h-597v189h597zM733 573h-462v-91h462v91zM84 366h830v-159h-65v105h-702v-106h-63v160zM834 -2q10 0 17 4t11 15.5t6 33.5t3 58q11 -8 28.5 -15t31.5 -11
q-3 -43 -8 -70.5t-15.5 -43.5t-26 -22t-39.5 -6h-125q-30 0 -49 4t-30 14t-15 26.5t-4 41.5v156h-246q-6 -57 -22 -99t-47 -72.5t-80.5 -51.5t-123.5 -36q-5 13 -15.5 29.5t-21.5 25.5q76 13 123 32.5t73.5 50t36.5 74t13 105.5h379v-215q0 -17 7 -22.5t31 -5.5h108z"     />

    
    <glyph glyph-name="cid10101" unicode="&#x4EB2;" d="M535 415v-109h376v-60h-376v-241q0 -30 -8 -45t-29 -23q-22 -8 -57.5 -9.5t-90.5 -0.5q-3 14 -9.5 30.5t-13.5 30.5q42 -2 76 -1t45 1q11 1 15.5 4t4.5 13v241h-373v60h373v109h-394v60h250q-9 31 -28.5 73t-41.5 77l60 16q24 -36 45 -79t30 -74l-42 -13h246
q23 38 46 83.5t37 81.5l68 -15q-19 -38 -40 -77t-42 -73h264v-60h-391zM697 209q26 -23 54 -50t54 -54.5t48 -53.5t36 -47l-57 -39q-14 21 -35.5 48t-47 55t-53 56t-53.5 51zM338 186q-35 -64 -86.5 -123t-102.5 -100q-9 8 -26 21t-29 20q54 38 102 90.5t78 111.5zM878 653
h-742v57h340q-11 26 -25 54.5t-29 54.5l65 15q18 -29 35.5 -63t28.5 -61h327v-57z"     />

    
    <glyph glyph-name="uni4EBA" unicode="&#x4EBA;" d="M538 832q-1 -26 -2 -62.5t-5 -81.5q4 -29 12.5 -81t27 -117t48.5 -136.5t76.5 -139.5t111.5 -127.5t153 -98.5q-14 -11 -27 -26.5t-21 -29.5q-96 45 -165.5 113t-118 145.5t-78.5 157.5t-48 151q-17 -77 -46 -157t-76.5 -155.5t-116 -142t-162.5 -115.5q-8 13 -23 26.5
t-29 24.5q104 52 175 125t117 155t71 167.5t36.5 163t13.5 140.5t3 101h73z"     />

    
    <glyph glyph-name="cid10123" unicode="&#x4EC1;" d="M947 69v-70h-618v70h618zM366 813q-23 -57 -50 -113t-59 -110v-664h-66v562q-26 -35 -53.5 -68t-55.5 -62q-3 6 -7.5 14.5t-10.5 18t-12 18t-11 14.5q39 37 76 83.5t70.5 99.5t62.5 111t51 117zM902 596h-515v69h515v-69z"     />

    
    <glyph glyph-name="cid10129" unicode="&#x4EC5;" d="M905 714q-29 -169 -87 -300t-137 -230q57 -68 127 -119t157 -83q-11 -10 -23.5 -25.5t-20.5 -28.5q-86 35 -155.5 87t-126.5 119q-66 -71 -142 -122.5t-160 -86.5q-5 13 -16.5 29t-22.5 26q83 31 158.5 82.5t141.5 124.5q-69 96 -116 215t-79 259l5 1h-45v63h488l12 3z
M466 662q27 -123 70 -230t104 -195q66 83 114.5 189t75.5 236h-364zM366 808q-46 -112 -109 -217v-665h-66v567q-29 -39 -58.5 -74.5t-61.5 -65.5q-3 6 -7.5 14.5t-10.5 18t-12 18t-11 14.5q40 37 79 83.5t74 99.5t65 110.5t53 117.5z"     />

    
    <glyph glyph-name="cid10146" unicode="&#x4ECE;" d="M721 809q-6 -90 -14.5 -170.5t-20.5 -155.5q13 -63 35 -132.5t54 -135.5t76 -123.5t102 -96.5q-10 -10 -25 -27.5t-23 -31.5q-47 36 -85.5 84t-68.5 101.5t-53 111t-39 113.5q-32 -131 -85 -234.5t-139 -182.5q-9 9 -29 23.5t-34 22.5q75 63 125 147.5t81 190t47 230.5
t24 269zM458 164q-12 25 -29 55.5t-37.5 62.5t-43 65.5t-45.5 64.5q-25 -152 -69.5 -273t-122.5 -214q-5 4 -13 10.5t-17 13t-18 12.5l-15 10q61 66 101 153.5t64.5 194t37 230.5t18.5 262l71 -3q-5 -84 -11 -160.5t-15 -148.5q28 -34 57 -72.5t54.5 -76.5t47 -74t35.5 -66z
"     />

    
    <glyph glyph-name="cid10157" unicode="&#x4ED6;" d="M816 -2q23 0 37 6t22.5 22.5t13 45t7.5 72.5q13 -9 30.5 -16.5t31.5 -11.5q-5 -51 -12 -85t-22.5 -55t-41 -30t-65.5 -9h-268q-43 0 -71.5 6t-46 20.5t-24.5 40t-7 64.5v334l-102 -39l-25 58l127 49v269h65v-243l156 61v277h63v-253l167 65l7 6l12 10l46 -18l-3 -12
q0 -68 -1 -129t-2.5 -109.5t-4.5 -83.5t-6 -51q-8 -34 -22 -49t-37 -20q-21 -5 -49.5 -6t-50.5 0q-2 15 -6 32.5t-11 29.5q22 -1 45.5 -1h33.5q14 0 22 5.5t14 25.5q6 22 8.5 101t3.5 200l-166 -64v-369h-63v344l-156 -61v-359q0 -21 3.5 -34.5t12.5 -21.5t25.5 -11t43.5 -3
h266zM334 813q-22 -54 -48 -108t-55 -105v-674h-65v573q-26 -37 -52.5 -69.5t-53.5 -61.5q-3 6 -7.5 14t-9.5 17t-11 17.5t-10 14.5q37 36 73 81.5t68.5 97.5t60.5 108t49 114z"     />

    
    <glyph glyph-name="cid10185" unicode="&#x4EEA;" d="M907 766q-16 -88 -37 -169t-49 -155t-65 -141t-85 -125q57 -65 128.5 -114t161.5 -81q-12 -11 -25.5 -27.5t-21.5 -30.5q-91 35 -161.5 85.5t-127.5 115.5q-60 -61 -137 -111.5t-176 -88.5q-6 11 -18 25.5t-22 25.5q100 38 176.5 87t136.5 112q-83 112 -134.5 257
t-83.5 323l64 8q28 -161 75.5 -295.5t124.5 -239.5q43 55 76.5 118t58.5 132t43.5 145t32.5 157zM336 813q-44 -112 -105 -216v-670h-63v572q-26 -37 -53 -70t-54 -62q-3 6 -7.5 14.5t-10 18t-11 18t-10.5 13.5q37 36 73 81.5t68.5 97.5t60.5 108t49 114zM656 579
q-8 20 -20 45.5t-27.5 53t-32.5 55.5t-34 52l53 26q17 -24 34.5 -50.5t33.5 -53t28.5 -51.5t20.5 -45z"     />

    
    <glyph glyph-name="cid10188" unicode="&#x4EEC;" d="M918 13q0 -33 -9 -49.5t-31 -24.5q-22 -9 -60.5 -10.5t-96.5 -1.5q-2 13 -9 31.5t-14 32.5q45 -2 82 -2t49 1q13 1 18 5.5t5 17.5v724h-276v61h342v-785zM437 834q16 -23 33.5 -48.5t33.5 -51t29.5 -49t22.5 -42.5l-55 -31q-8 19 -21 43.5t-28.5 50.5t-33 52.5
t-33.5 49.5zM343 638h65v-714h-65v714zM292 813q-15 -55 -34.5 -109.5t-41.5 -105.5v-673h-64v542q-18 -32 -36 -60t-38 -54q-2 6 -6.5 14.5t-10 18t-11 18t-9.5 14.5q30 38 57.5 85.5t51.5 100.5t45 110t37 115z"     />

    
    <glyph glyph-name="cid10215" unicode="&#x4EFD;" d="M748 815q16 -66 36.5 -119t47 -98t60 -82.5t75.5 -71.5q-14 -10 -27 -25t-19 -30q-46 39 -82 82t-64 93t-49 109t-38 131zM847 444q-1 -7 -1 -13v-19q-6 -115 -12 -194.5t-13 -132t-15.5 -81.5t-19.5 -42q-13 -16 -28 -22t-36 -8q-18 -2 -49 -1.5t-65 2.5
q-2 14 -6.5 31.5t-12.5 30.5q35 -3 64 -4t42 -1t20 2t15 11t15 33.5t13 69t11.5 112t10.5 164.5h-186q-10 -83 -28 -152.5t-47 -126t-70.5 -101.5t-96.5 -79q-3 4 -8.5 11t-12 14t-13 13.5t-12.5 10.5q52 29 90.5 69t65.5 91t43 113.5t24 136.5h-135v62h453zM573 795
q-36 -130 -98 -236.5t-147 -178.5q-5 11 -18.5 29t-23.5 28q79 63 135 159t87 213zM328 813q-20 -55 -43.5 -109.5t-50.5 -105.5v-674h-66v561q-21 -32 -43.5 -62t-45.5 -57q-5 12 -17.5 32.5t-21.5 32.5q34 36 66.5 82t61.5 97.5t54 108t44 113.5z"     />

    
    <glyph glyph-name="cid10260" unicode="&#x4F1A;" d="M569 807l-14 -20t-15 -20q34 -36 80 -74t100.5 -73.5t114.5 -66t122 -52.5q-11 -10 -25 -27t-22 -31q-59 24 -117 57t-111 70t-98.5 76t-80.5 76q-49 -56 -108.5 -104.5t-128.5 -92.5h474v-62h-477v60q-39 -25 -80.5 -48t-86.5 -43q-8 12 -22 29t-26 28q73 31 141.5 70
t127.5 83.5t107 92.5t81 99zM92 334h822v-64h-441q-49 -65 -102 -126.5t-108 -112.5l471 37q-29 33 -60 65.5t-61 61.5l56 29q33 -30 67 -64t64 -69t55 -68.5t42 -61.5l-59 -35q-10 19 -25 39.5t-32 43.5q-134 -11 -229.5 -19t-161.5 -14t-107 -10t-65.5 -7t-37 -6t-21.5 -6
q-2 5 -4.5 14t-5.5 18.5t-6.5 19.5t-6.5 17q16 3 33.5 16.5t41.5 36.5q10 9 29 28.5t42.5 46.5t50 59t51.5 67h-292v64z"     />

    
    <glyph glyph-name="cid10294" unicode="&#x4F34;" d="M943 217h-302v-291h-66v291h-291v62h291v158h-250v63h250v336h66v-336h261v-63h-261v-158h302v-62zM300 813q-15 -51 -34 -101.5t-40 -98.5v-689h-64v561q-20 -37 -42 -69.5t-45 -61.5q-2 5 -6.5 14t-9.5 18.5t-10.5 18t-9.5 14.5q62 77 114 185t87 226zM467 529
q-10 22 -24.5 49t-32 56.5t-36 58.5t-35.5 55l53 24q18 -25 37 -53t36.5 -56.5t32 -55t24.5 -47.5zM865 759q-26 -59 -57.5 -121.5t-59.5 -108.5q-10 8 -27.5 16.5t-29.5 13.5q31 45 61 103t53 114z"     />

    
    <glyph glyph-name="cid10329" unicode="&#x4F4D;" d="M951 30v-64h-624v64h351q14 51 28 114.5t27 130.5t24 133.5t19 122.5l69 -13q-10 -58 -22 -122.5t-26 -129t-28.5 -125t-28.5 -111.5h211zM355 814q-21 -56 -47.5 -109.5t-55.5 -104.5v-674h-66v570q-25 -36 -52 -68.5t-54 -61.5l-7.5 15t-9.5 18t-11 17.5t-10 14.5
q37 36 73 81.5t68 97.5t60 108t50 114zM507 79q-3 39 -10 91.5t-16 110.5t-20.5 116.5t-23.5 111.5l60 12q13 -53 25 -111t22 -114.5t17.5 -108t11.5 -89.5zM909 588h-538v64h538v-64zM621 666q-3 16 -8.5 35.5t-12 40.5t-13.5 42.5t-14 39.5l62 17q14 -38 28.5 -81
t22.5 -75z"     />

    
    <glyph glyph-name="cid10340" unicode="&#x4F53;" d="M692 566q23 -64 53.5 -126t66 -117.5t75 -102t80.5 -78.5q-11 -9 -26 -24t-25 -29q-40 36 -78.5 85t-73 107t-64.5 123t-53 131v-362h166v-60h-166v-184h-64v184h-170v60h170v358q-24 -67 -55 -131.5t-66 -122t-74 -106t-79 -84.5q-9 11 -23 26t-25 24q41 33 81 80
t76.5 103t67.5 119t54 127h-243v64h286v203h64v-203h303v-64h-258zM320 814q-19 -55 -42 -109.5t-49 -106.5v-672h-63v563q-21 -35 -44 -65.5t-46 -57.5q-5 12 -17 32.5t-22 32.5q33 37 65 82.5t60.5 97.5t52.5 108t43 113z"     />

    
    <glyph glyph-name="cid10350" unicode="&#x4F59;" d="M556 816q-5 -5 -9 -10.5t-9 -10.5q87 -99 196 -167t238 -121q-13 -10 -25 -26t-20 -30q-126 57 -231.5 127.5t-195.5 171.5q-44 -47 -94.5 -91.5t-105.5 -84.5t-112 -74t-112 -61q-9 12 -21 27.5t-25 26.5q66 28 133 67t129 84.5t116.5 96.5t95.5 104zM703 209
q29 -22 60 -48.5t60.5 -54t54.5 -53.5t42 -47l-57 -41q-16 22 -40.5 49t-53.5 55t-60 55.5t-60 51.5zM539 273v-266q0 -32 -9 -47.5t-31 -23.5q-23 -8 -61 -10t-98 -2q-3 14 -11 32t-16 32q48 -2 85.5 -2t49.5 1q13 1 17.5 5t4.5 15v266h-374v63h374v133h-229v61h518v-61
h-220v-133h373v-63h-373zM341 184q-23 -31 -50 -61.5t-57 -59.5t-61 -54.5t-60 -46.5q-8 9 -24 23t-28 22q60 38 118.5 90.5t99.5 108.5z"     />

    
    <glyph glyph-name="cid10354" unicode="&#x4F5C;" d="M643 604v-150h292v-62h-292v-158h305v-63h-305v-246h-67v679h-74q-32 -61 -69 -114.5t-75 -96.5q-8 8 -24 22.5t-28 22.5q34 35 66 79t60.5 93.5t52.5 103t42 108.5l64 -16q-13 -35 -27.5 -69.5t-29.5 -68.5h423v-64h-314zM356 812q-44 -110 -103 -215v-671h-67v568
q-25 -36 -52 -68t-54 -60q-3 6 -7.5 14.5t-10 18t-11 18t-10.5 14.5q37 36 73 81.5t68.5 97.5t60.5 108t49 114z"     />

    
    <glyph glyph-name="cid10410" unicode="&#x4F7F;" d="M661 287q-6 -53 -21 -102t-47 -94q77 -42 171 -69t203 -40q-11 -11 -22 -28.5t-18 -31.5q-108 16 -201.5 46t-171.5 77q-38 -38 -93.5 -69.5t-136.5 -55.5q-5 11 -17 28t-23 27q75 20 128 47t88 59q-94 68 -149 165l55 18q24 -40 57.5 -74.5t75.5 -64.5q26 37 39 77.5
t18 84.5h-245v271h250v103h-281v61h281v110h65v-110h292v-61h-292v-103h258v-271h-263zM666 502v-107v-25.5t-1 -25.5h195v158h-194zM600 344q1 14 1 26v26v106h-189v-158h188zM345 818q-21 -54 -47.5 -106t-56.5 -103v-689h-64v592q-27 -38 -56 -73t-59 -64
q-5 12 -16.5 32.5t-21.5 32.5q38 35 75 80t70.5 96.5t62.5 107.5t51 113z"     />

    
    <glyph glyph-name="cid10456" unicode="&#x4F9B;" d="M956 302v-65h-646v65h157v253h-132v64h132v205h65v-205h202v205h65v-205h145v-64h-145v-253h157zM532 302h202v253h-202v-253zM765 175q26 -25 52 -53.5t50 -57t44 -55.5t33 -49l-56 -37q-12 23 -31.5 51.5t-43 58t-49 58.5t-50.5 54zM549 159q-37 -66 -88 -127.5
t-102 -105.5q-8 9 -24.5 22t-28.5 20q52 40 100.5 95.5t80.5 113.5zM338 814q-22 -56 -48 -110.5t-56 -106.5v-671h-65v570q-25 -35 -52 -67.5t-54 -61.5q-5 12 -16.5 33t-21.5 32q37 36 73 81.5t68.5 97.5t60.5 108t49 114z"     />

    
    <glyph glyph-name="cid10534" unicode="&#x4FCA;" d="M855 308q-29 -72 -75 -128.5t-104 -100.5q57 -32 123.5 -56.5t146.5 -38.5q-10 -11 -21 -27t-18 -29q-85 18 -156 47.5t-130 66.5q-72 -43 -153 -71.5t-168 -45.5q-5 13 -15 29.5t-19 27.5q81 14 157.5 38t142.5 61q-79 63 -125 136q-25 -23 -50 -44.5t-49 -38.5
q-8 9 -22.5 23t-25.5 22q34 22 68.5 50t65.5 60t58.5 67t48.5 71l59 -21q-12 -20 -26 -40t-29 -39h261l12 3zM481 258q47 -78 139 -144q45 32 82 70.5t63 86.5h-272zM341 815q-42 -112 -102 -219v-670h-64v569q-24 -35 -49 -67t-51 -59q-3 6 -7.5 14.5t-9.5 17.5t-11 17.5
t-10 14.5q36 37 70.5 82.5t66 97.5t58 108t47.5 113zM549 531q-45 -49 -102 -100.5t-108 -88.5q-8 8 -21.5 23t-24.5 23q25 16 52 36t53 42t49.5 44.5t43.5 44.5zM859 549q-8 13 -18.5 27.5t-23.5 29.5q-99 -8 -170.5 -13t-121 -9.5t-80.5 -7.5t-49.5 -5.5t-28 -4.5
t-15.5 -5q-3 11 -9.5 30t-11.5 32q14 2 27.5 12t31.5 25q9 8 27.5 26t41.5 42t47 53t45 59l63 -24q-39 -50 -81 -95t-85 -82l326 20q-23 26 -46.5 52.5t-45.5 49.5l49 29q24 -24 50 -51.5t50 -55t45 -53.5t35 -46zM724 567q27 -21 56.5 -44.5t57.5 -47.5t52.5 -46.5
t42.5 -40.5l-50 -38q-16 18 -40 41.5t-51.5 48.5t-57 49.5t-56.5 45.5z"     />

    
    <glyph glyph-name="cid10572" unicode="&#x4FE1;" d="M943 669v-57h-632v57h632zM863 472h-479v55h479v-55zM384 388h479v-56h-479v56zM370 243h503v-316h-60v37h-384v-40h-59v319zM429 187v-167h384v167h-384zM321 814q-17 -52 -39 -102.5t-47 -99.5v-691h-62v582q-23 -38 -48 -71t-50 -63q-3 6 -7.5 14t-9.5 17t-11 17
t-10 14q34 37 66.5 82.5t61 97.5t53 108t43.5 113zM612 679q-11 27 -30.5 64.5t-39.5 68.5l57 23q22 -31 42 -67t31 -63z"     />

    
    <glyph glyph-name="cid49" unicode="&#x50;" d="M297 364q101 0 149.5 37t48.5 119q0 41 -12.5 69t-38 45t-63.5 24t-88 7h-108v-301h112zM102 732h203q62 0 112 -11t85.5 -36t55 -65.5t19.5 -99.5q0 -57 -19 -99t-54.5 -70t-85 -41.5t-109.5 -13.5h-124v-296h-83v732z"  horiz-adv-x="626"   />

    
    <glyph glyph-name="cid10786" unicode="&#x505C;" d="M947 744v-58h-621v58h280q-8 19 -19 40t-22 38l60 18q14 -21 29 -47.5t23 -48.5h270zM861 630v-188h-461v188h461zM797 580h-335v-88h335v88zM311 375h634v-159h-60v104h-515v-103h-59v158zM396 241h461v-55h-194v-186q0 -27 -8 -41.5t-30 -21.5q-23 -8 -61.5 -8.5
t-97.5 -0.5q-2 14 -8 29t-14 29q48 -1 84.5 -1h47.5q12 1 16 4.5t4 12.5v184h-200v55zM331 816q-22 -60 -48.5 -118t-56.5 -113v-660h-61v560q-21 -32 -44 -61.5t-46 -55.5q-5 12 -17 32.5t-20 32.5q35 37 68 82.5t63 97.5t55.5 108t45.5 113z"     />

    
    <glyph glyph-name="cid10922" unicode="&#x50A3;" d="M748 405q40 -48 97 -84.5t120 -56.5q-11 -10 -23 -24.5t-20 -27.5q-72 28 -136.5 78.5t-106.5 114.5h-171q-39 -62 -89.5 -112t-115.5 -90q-3 4 -9 11t-12.5 13.5t-13.5 13t-13 10.5q108 59 177 154h-155v55h192q12 21 22.5 43t21.5 46h-167v54h186q7 18 12.5 37.5
t10.5 39.5l-226 1v54h238q5 23 9 48t8 51l65 -8l-8 -46t-9 -46h284l-1 -55l-296 1q-5 -20 -10.5 -39.5t-10.5 -37.5h299v-54h-318q-9 -24 -19 -46t-20 -43h405v-55h-197zM475 137q-7 10 -18 22t-24 25t-27 25t-27 22l40 34q14 -9 28.5 -20.5t27.5 -23.5t24 -24t18 -22z
M819 240q-20 -28 -43 -55t-44 -50q54 -29 102 -59t80 -53l-38 -47q-21 16 -49 35t-60 38.5t-66.5 39t-67.5 36.5v-130q0 -25 -6 -37.5t-25 -19.5q-17 -7 -47 -8t-76 -1q-2 12 -8 26.5t-11 25.5q34 -1 60.5 -1t35.5 1t12 4t3 11v105q-68 -30 -134 -59.5t-120 -52.5l-32 52
q27 10 60 23t70 28t76.5 31.5t79.5 33.5v201h62v-173q13 -6 25.5 -12t25.5 -13q22 25 45 55.5t37 54.5zM322 816q-19 -54 -41 -108t-48 -105v-677h-63v565q-22 -37 -45.5 -69.5t-47.5 -61.5q-6 11 -19 30.5t-22 30.5q34 38 66 85.5t60.5 100.5t53 110.5t43.5 116.5z"     />

    
    <glyph glyph-name="cid11221" unicode="&#x5149;" d="M839 8q11 0 18 3t11.5 12t6.5 25t3 43q11 -8 29.5 -14.5t32.5 -10.5q-3 -36 -9 -59.5t-16.5 -37.5t-28 -19.5t-42.5 -5.5h-159q-33 0 -54 4.5t-33.5 15.5t-17.5 30t-5 48v360h-158q-6 -87 -21.5 -161t-49.5 -134t-93 -106.5t-152 -79.5q-6 13 -18.5 30t-23.5 27
q88 27 142 68t84.5 94t43.5 119t19 143h-278v64h394v370h69v-370h392v-64h-282v-359q0 -23 8 -29t40 -6h148zM289 527q-11 21 -27 47t-35.5 54.5t-41 57t-41.5 53.5l53 29q21 -24 42.5 -52t41.5 -55.5t37 -53t28 -46.5zM867 739q-17 -27 -36.5 -56t-40 -57t-40.5 -53.5
t-38 -45.5l-56 25q18 21 38 47.5t39.5 55t36.5 57.5t30 54z"     />

    
    <glyph glyph-name="uni5165" unicode="&#x5165;" d="M341 811q79 -56 132.5 -124t94.5 -141t76 -147.5t77 -145t98 -133.5t139 -112q-9 -13 -19.5 -35.5t-13.5 -37.5q-87 49 -146 115t-104 141.5t-82 155t-79 155.5q-56 -199 -155 -340t-253 -232q-9 11 -27.5 27.5t-32.5 25.5q84 44 150.5 104.5t117 136.5t86.5 167.5
t60 199.5q-32 47 -70.5 88t-88.5 76z"     />

    
    <glyph glyph-name="uni516B" unicode="&#x516B;" d="M653 760q1 -19 5 -69.5t15 -120.5t32 -151.5t56 -162.5t85.5 -154.5t122.5 -126.5q-17 -10 -32 -21.5t-25 -23.5q-73 55 -124.5 132t-87.5 161.5t-57 170.5t-33 159.5t-16.5 127.5t-5.5 75l65 4v0zM383 731q-10 -110 -27.5 -223t-50.5 -219t-86 -198.5t-135 -160.5
q-8 11 -22 25.5t-25 23.5q78 64 128 152t80 188t44.5 207.5t22.5 210.5z"     />

    
    <glyph glyph-name="cid11286" unicode="&#x516C;" d="M659 812q25 -52 61 -106.5t76 -105.5t82.5 -95t81.5 -74q-14 -11 -29.5 -27t-26.5 -30q-39 35 -81.5 82.5t-83.5 102.5t-78.5 113.5t-65.5 114.5zM675 303q33 -39 68 -84t67.5 -89.5t60 -86.5t45.5 -75l-64 -35q-13 23 -30.5 52t-37.5 59q-133 -9 -228 -15t-161 -10.5
t-107 -8t-65 -6.5t-36.5 -5.5t-20.5 -5.5q-3 11 -11 33t-15 36q19 5 39.5 28t49.5 57q15 17 43 55.5t62 91t70.5 114t66.5 123.5l70 -32q-63 -114 -134.5 -223.5t-146.5 -197.5l482 27q-31 45 -64 88.5t-64 81.5zM400 786q-51 -123 -125 -230t-157 -181q-11 9 -29.5 24
t-32.5 23q43 33 82.5 76t75 92.5t65 103.5t52.5 111z"     />

    
    <glyph glyph-name="cid11289" unicode="&#x516D;" d="M478 830q13 -25 27 -53t27 -55.5t24 -53t19 -44.5l-71 -29q-7 20 -17.5 46t-23 54.5t-26 57.5t-25.5 55zM672 388q35 -49 74 -105t76.5 -111.5t70 -107t55.5 -90.5l-68 -37q-21 39 -52.5 91t-68 109t-75 114.5t-74.5 107.5zM385 357q-27 -58 -60 -117t-68 -114.5
t-71.5 -105.5t-71.5 -90q-6 4 -14 10.5t-17 13t-18 12.5t-16 10q36 38 72.5 85.5t70.5 100t65 108t56 110.5zM941 569v-68h-879v68h879z"     />

    
    <glyph glyph-name="cid11299" unicode="&#x5174;" d="M923 764q-24 -48 -52.5 -100.5t-58.5 -103.5t-60.5 -98t-58.5 -85l-60 27q28 37 58.5 85t60 100t55.5 104t46 97zM422 816q20 -36 38.5 -76t34 -79.5t27 -77t17.5 -68.5l-65 -25q-6 31 -17.5 69t-26.5 78.5t-33 81t-37 76.5zM124 743q24 -33 47.5 -71t44.5 -76.5
t37.5 -74.5t26.5 -66l-63 -30q-10 30 -26 67t-36.5 76t-43.5 77.5t-47 72.5zM380 207q-26 -38 -59 -77t-69.5 -75.5t-76 -69.5t-78.5 -60q-8 11 -22.5 27t-25.5 26q37 24 74.5 54t72 64t64 69t49.5 68zM669 233q34 -30 72.5 -65t75.5 -70.5t69 -69t54 -60.5l-60 -41
q-21 27 -52 61t-67 70.5t-74 73t-73 67.5zM940 354v-64h-883v64h883z"     />

    
    <glyph glyph-name="cid11323" unicode="&#x5185;" d="M899 16q0 -35 -9.5 -53t-34.5 -26q-26 -8 -71.5 -10t-112.5 -2q-2 15 -8.5 34.5t-14.5 33.5q54 -2 99.5 -2t60.5 1t20 6t5 18v583h-300q-2 -32 -6 -65.5t-13 -68.5q38 -33 79 -71t80 -76t72.5 -73.5t57.5 -63.5l-54 -42q-20 25 -49 57t-62.5 67t-70 70.5t-72.5 68.5
q-29 -73 -86.5 -143.5t-161.5 -130.5q-8 11 -21.5 25.5t-25.5 23.5q84 46 135.5 99t80 108t38.5 110t12 105h-297v-677h-66v742h364v172h67v-172h365v-648z"     />

    
    <glyph glyph-name="cid11390" unicode="&#x51B2;" d="M933 632v-440h-66v57h-206v-323h-66v323h-201v-63h-63v446h264v193h66v-193h272zM595 311v258h-201v-258h201zM867 311v258h-206v-258h206zM57 11q19 30 42 68.5t46.5 82t47 89t44.5 88.5l48 -42q-18 -40 -39.5 -83.5t-44 -86t-45 -83.5t-43.5 -76zM224 565
q-11 20 -28.5 45.5t-38.5 52t-44 52.5t-45 48l49 35q22 -22 45.5 -47.5t45.5 -51t40 -50t30 -44.5z"     />

    
    <glyph glyph-name="cid11395" unicode="&#x51B5;" d="M867 -5q10 0 16.5 5.5t10 22t5.5 46.5t3 79q11 -9 27.5 -16.5t30.5 -11.5q-2 -54 -7 -89.5t-14.5 -56.5t-25 -29.5t-39.5 -8.5h-103q-26 0 -43 4.5t-27 15.5t-14 29.5t-4 45.5v356h-127q-5 -86 -17 -157.5t-39.5 -128.5t-74.5 -100.5t-123 -74.5q-6 13 -18.5 28.5
t-23.5 24.5q70 27 113.5 65t68 88.5t35 114t14.5 140.5h-115v403h519v-403h-146v-357q0 -22 5.5 -28.5t25.5 -6.5h87zM442 449h384v278h-384v-278zM271 297q-18 -41 -39.5 -84t-43.5 -86t-44.5 -83.5t-43.5 -76.5l-57 44q19 30 42 68.5t46.5 82t47 89t44.5 88.5zM212 566
q-11 20 -29 45t-39 51.5t-43.5 52.5t-44.5 48l51 36q21 -22 44.5 -47.5t45 -51t39.5 -50t30 -43.5z"     />

    
    <glyph glyph-name="cid11520" unicode="&#x51FA;" d="M890 339v-413h-72v58h-707v355h72v-290h280v355h-309v339h69v-274h240v366h72v-366h244v275h72v-340h-316v-355h283v290h72z"     />

    
    <glyph glyph-name="cid11521" unicode="&#x51FB;" d="M536 47h243v255h67v-378h-67v59h-626v320h70v-256h244v335h-396v67h396v163h-322v66h322v157h69v-157h326v-66h-326v-163h396v-67h-396v-335z"     />

    
    <glyph glyph-name="cid11566" unicode="&#x521A;" d="M914 817v-803q0 -32 -9 -48t-29 -24t-56.5 -10t-99.5 -2q-2 13 -8 30t-13 31q47 -2 83 -1t47 1q13 1 18.5 5t5.5 18v803h61zM747 174h-60v553h60v-553zM583 24q0 -29 -8 -44t-28 -23t-54.5 -10t-91.5 -2q-2 13 -9 30t-14 29q43 -2 77 -1.5t45 0.5q12 1 17 5.5t5 16.5v701
h-368v-797h-62v857h491v-762zM435 116q-15 40 -35.5 88t-46.5 100q-32 -75 -66 -140.5t-72 -119.5q-8 7 -23.5 16.5t-26.5 15.5q44 60 82 133.5t72 157.5q-32 62 -66 121.5t-67 113.5l47 23q28 -45 56.5 -92.5t56.5 -97.5q21 59 40 120t35 123l55 -11q-20 -76 -44.5 -150.5
t-51.5 -145.5q33 -63 60 -121t45 -106z"     />

    
    <glyph glyph-name="cid11588" unicode="&#x5229;" d="M908 825v-805q0 -36 -10.5 -53t-32.5 -25q-24 -9 -65.5 -11t-110.5 -2q-3 14 -10 33.5t-15 33.5q54 -2 96 -1.5t56 0.5q14 1 20 6t6 19v805h66zM695 170h-66v548h66v-548zM337 535h211v-62h-211v-26q18 -17 46.5 -45t58 -58t55 -55.5t36.5 -37.5l-38 -54q-12 14 -30.5 35
t-40 45t-44.5 49t-43 46v-446h-66v445q-20 -44 -43.5 -88t-49 -83.5t-52 -74t-52.5 -60.5q-6 14 -16.5 32t-19.5 29q30 29 61 69t60 85.5t54.5 95t43.5 97.5h-200v62h214v177q-51 -9 -100 -17t-97 -14q-2 12 -8 27t-13 26q55 8 114 18t114.5 22t104 26t83.5 29l50 -50
q-38 -16 -84 -29t-98 -24v-191z"     />

    
    <glyph glyph-name="cid11596" unicode="&#x5230;" d="M906 818v-783q0 -33 -9 -50t-30 -25q-23 -8 -61 -10.5t-92 -2.5q-3 14 -10.5 33.5t-15.5 33.5q45 -2 82 -2t50 1t17 5t4 16v784h65zM706 149h-62v601h62v-601zM75 768h510v-59h-271q-27 -53 -58 -103t-63 -92l270 24q-20 27 -39.5 53.5t-38.5 49.5l48 29q21 -25 43.5 -54
t43 -57.5t37.5 -55t28 -47.5l-50 -33q-14 28 -38 64q-119 -12 -189.5 -19.5t-109 -12t-53.5 -7.5t-23 -7q-3 11 -9.5 30.5t-13.5 32.5q12 2 23.5 14.5t24.5 29.5q6 8 16.5 23.5t23.5 37t27 47t26 53.5h-165v59zM363 93q53 10 106 19t106 20l4 -58q-66 -13 -134 -26.5
t-132.5 -26t-123.5 -23.5t-108 -20l-14 62q47 8 106 18.5t126 22.5v174h-197v60h197v111h64v-111h203v-60h-203v-162z"     />

    
    <glyph glyph-name="cid11640" unicode="&#x524D;" d="M944 676v-61h-887v61h252q-7 15 -17.5 32.5t-23 35.5t-26.5 36t-27 34l61 23q14 -16 29 -35t28.5 -37.5t24.5 -36.5t19 -33l-49 -19h303q12 18 25.5 39t26 43t24 43.5t20.5 39.5l69 -24q-21 -35 -44.5 -72t-46.5 -69h239zM670 106h-62v407h62v-407zM810 543h65v-532
q0 -32 -8.5 -47.5t-30.5 -23.5q-23 -8 -61 -10t-95 -2q-3 14 -10 32t-15 32q48 -2 84.5 -2t48.5 1q13 1 17.5 5t4.5 15v532zM480 5q0 -27 -7 -42t-27 -23t-54 -9.5t-85 -1.5q-3 13 -9 29.5t-13 29.5q39 -2 70.5 -2t41.5 1q11 1 15 4.5t4 13.5v142h-231v-218h-64v593h359
v-517zM185 464v-104h231v104h-231zM416 200v107h-231v-107h231z"     />

    
    <glyph glyph-name="cid11682" unicode="&#x5267;" d="M909 816v-811q0 -30 -8 -46t-26 -24q-19 -8 -51 -10t-84 -2q-3 13 -9 31t-12 32q38 -2 68.5 -2t39.5 1q11 1 15.5 5t4.5 15v811h62zM735 169h-60v548h60v-548zM421 428h190v-60h-190v-118h153v-317h-61v41h-250v-44h-59v320h157v118h-187q-4 -51 -11 -103.5t-17.5 -103.5
t-25 -99.5t-35.5 -90.5q-4 5 -10.5 12t-13.5 14.5t-14 14t-11 9.5q28 61 44 132t24.5 143t11 141t2.5 128v219h449v-242h-146v-114zM513 192h-250v-160h250v160zM181 725v-123h323v123h-323zM361 428v114h-180q0 -54 -3 -114h183z"     />

    
    <glyph glyph-name="cid11784" unicode="&#x52A0;" d="M909 709v-764h-69v67h-205v-74h-66v771h340zM840 76v569h-205v-569h205zM490 652q-1 -7 -1 -14v-21q-8 -164 -15 -276.5t-15 -185t-18.5 -111.5t-24.5 -57t-29 -26t-36 -10q-19 -2 -48 -2t-61 2q-1 15 -5.5 34.5t-12.5 33.5q32 -3 59 -4t41 -1q11 0 19 3t15 14
q11 12 20 46.5t16.5 100t14.5 165.5t13 244h-148q-5 -94 -15 -186.5t-29.5 -177.5t-51.5 -160t-80 -133q-9 11 -24 23.5t-29 19.5q45 52 74.5 121.5t48 149.5t28 167.5t13.5 175.5h-142v65h144q1 47 1.5 92t0.5 89h66q0 -88 -3 -181h214z"     />

    
    <glyph glyph-name="cid11795" unicode="&#x52A8;" d="M941 569q0 -154 -4.5 -260.5t-13 -175.5t-19.5 -106t-24 -53q-15 -19 -31 -26t-39 -9t-60.5 -1.5t-78.5 3.5q-1 14 -6.5 32.5t-14.5 32.5q45 -5 81 -5.5t52 -0.5q14 0 22.5 3t16.5 12q10 12 17.5 44.5t14 94t11.5 156t9 230.5h-157q-5 -92 -16.5 -180t-34.5 -167
t-60 -147.5t-92 -120.5q-9 12 -24 26t-28 21q51 47 85.5 109.5t56.5 136t33 155t16 167.5h-145v64h148q3 106 3 215h65q0 -54 -1 -107.5t-3 -107.5h221v-35zM450 65q-4 14 -8.5 31.5t-10.5 37.5q-106 -23 -169 -37t-98 -23t-49 -14t-22 -10q-3 11 -10 30.5t-13 32.5
q12 2 22.5 21t22.5 48q6 12 16 39.5t22 64t24 80t22 87.5h-141v62h437v-62h-228q-20 -82 -47.5 -164t-57.5 -151l250 52q-14 41 -29.5 81.5t-31.5 77.5l55 15q15 -34 30 -72t28.5 -75.5t25 -71.5t19.5 -60zM477 693h-382v60h382v-60z"     />

    
    <glyph glyph-name="cid52" unicode="&#x53;" d="M302 -13q-78 0 -142 29t-112 80l50 57q40 -43 93 -68t112 -25q75 0 118 34.5t43 91.5q0 30 -9.5 50t-26.5 35t-40 26.5t-49 23.5l-106 47q-26 11 -52 26.5t-48 37.5t-35.5 52t-13.5 70q0 42 17 77t47 60.5t71.5 39.5t90.5 14q66 0 120.5 -25t92.5 -65l-44 -53
q-34 32 -75 51t-94 19q-64 0 -103 -30t-39 -82q0 -28 11 -48t29 -34.5t39.5 -25t42.5 -19.5l106 -45q31 -14 59 -30.5t48.5 -40t32.5 -54t12 -71.5q0 -43 -17 -80.5t-49 -65t-77.5 -43.5t-102.5 -16z"  horiz-adv-x="592"   />

    
    <glyph glyph-name="cid11947" unicode="&#x5305;" d="M782 9q32 0 52 5t32 19.5t17.5 39.5t9.5 64q12 -8 30.5 -15t32.5 -9q-5 -49 -14 -81t-28 -51t-50.5 -27t-81.5 -8h-387q-57 0 -94.5 5.5t-60.5 20.5t-32.5 40.5t-9.5 64.5v451h404v-291h-338v-160q0 -20 4.5 -33.5t18 -21t38.5 -10.5t65 -3h392zM264 468v-170h274v170
h-274zM269 637q-40 -57 -84 -105t-90 -86q-9 8 -26 23.5t-29 24.5q41 30 79.5 69t72.5 83.5t63 94t51 100.5l67 -19q-28 -61 -63 -121h559q-1 -7 -1 -13v-20q-5 -126 -9 -213t-9.5 -143t-13 -87t-17.5 -44q-13 -16 -27.5 -22.5t-34.5 -8.5t-50.5 -1.5t-65.5 2.5q-2 14 -6 32
t-12 31q34 -3 62.5 -3.5t40.5 -0.5t19.5 2.5t14.5 10.5q7 9 13 34.5t11 74t9 123t7 182.5h-531z"     />

    
    <glyph glyph-name="cid12051" unicode="&#x533A;" d="M771 93q-38 48 -94 107.5t-122 123.5q-65 -68 -133.5 -125.5t-139.5 -105.5q-8 10 -24.5 26t-28.5 24q75 45 145 102t135 123q-62 59 -125.5 115t-123.5 106l47 38q59 -48 121.5 -101.5t124.5 -110.5q52 59 97 121t82 128l62 -24q-42 -72 -90.5 -138.5t-104.5 -129.5
q68 -63 126.5 -123t99.5 -109zM948 19v-64h-846v824h822v-64h-756v-696h780z"     />

    
    <glyph glyph-name="cid12074" unicode="&#x5343;" d="M946 378h-413v-454h-70v454h-407v65h407v246q-85 -13 -169.5 -22t-165.5 -17q-2 12 -7.5 29.5t-10.5 28.5q91 9 187.5 20.5t187.5 26t171.5 31t139.5 35.5l51 -55q-66 -19 -145.5 -35.5t-168.5 -30.5v-257h413v-65z"     />

    
    <glyph glyph-name="cid12086" unicode="&#x534E;" d="M945 157h-411v-233h-69v233h-410v64h410v118h69v-118h410zM228 612q-31 -30 -62.5 -56t-63.5 -49q-4 4 -10 11t-13 14t-14 13.5t-13 10.5q40 25 79.5 56.5t75.5 67.5t67.5 76t55.5 81l62 -22q-20 -35 -45.5 -68t-52.5 -65v-344h-66v274zM531 560q-38 -11 -74.5 -21
t-73.5 -20q-3 12 -10 26.5t-13 25.5q42 11 85 23.5t86 26.5v201h66v-179q78 28 144.5 58.5t112.5 63.5l52 -50q-61 -39 -141 -72t-168 -62v-118q0 -24 10.5 -31t46.5 -7h170q15 0 24 4t14.5 16t8 34t4.5 58q11 -8 28 -15t31 -11q-3 -43 -9 -71t-17.5 -44.5t-30.5 -23
t-48 -6.5h-181q-34 0 -56.5 4.5t-36 15.5t-19 29.5t-5.5 47.5v97z"     />

    
    <glyph glyph-name="cid12096" unicode="&#x5355;" d="M945 105h-413v-180h-68v180h-406v63h406v99h-311v396h187q-17 30 -43.5 69.5t-54.5 71.5l54 27q16 -17 32 -36.5t30.5 -39t26.5 -38.5t19 -34l-37 -20h244q13 18 27.5 39.5t28 44t25.5 44.5t21 41l70 -25q-23 -36 -48 -74t-50 -70h172v-396h-325v-99h413v-63zM790 439
h-258v-115h258v115zM790 606h-258v-113h258v113zM217 493h247v113h-247v-113zM464 324v115h-247v-115h247z"     />

    
    <glyph glyph-name="cid12103" unicode="&#x535A;" d="M956 163h-145v-166q0 -26 -7 -40t-27 -21q-21 -8 -55 -8.5t-87 -0.5q-2 13 -7.5 28t-11.5 27q42 -1 73 -1t42 1q11 0 14 3.5t3 12.5v165h-433v58h433v59h63v-59h145v-58zM457 150q18 -14 38 -29.5t39.5 -31.5t36.5 -30.5t29 -25.5l-40 -45q-12 12 -29 27.5t-36 32
t-39 33.5t-38 31zM235 508v-583h-65v583h-125v62h125v265h65v-265h110v-62h-110zM614 670h-274v55h274v110h61v-110h190q-13 7 -29.5 16t-34.5 18t-36 18.5t-34 17.5l28 39q35 -16 76 -35.5t67 -33.5l-26 -40h71v-55h-272v-60h223v-333h-60v68h-163v-65h-61v65h-164v-74h-59
v339h223v60zM450 561v-62h164v62h-164zM614 391v62h-164v-62h164zM838 391v62h-163v-62h163zM675 561v-62h163v62h-163z"     />

    
    <glyph glyph-name="cid12129" unicode="&#x536B;" d="M947 28v-65h-892v65h368v668h-304v66h746v-425q0 -32 -9 -49.5t-35 -25.5q-27 -9 -74.5 -10t-117.5 -1q-2 14 -10 33t-16 33q60 -2 107 -2.5t63 1.5q15 0 20 5t5 17v358h-304v-668h453z"     />

    
    <glyph glyph-name="cid12144" unicode="&#x5373;" d="M909 204q0 -29 -7.5 -45.5t-27.5 -24.5t-55 -10t-91 -1q-2 13 -7 31t-13 32q42 -2 74 -1.5t42 0.5q11 1 15 4.5t4 14.5v510h-192v-790h-66v852h324v-572zM374 261q19 -30 40 -64.5t39.5 -68.5t34.5 -65.5t26 -55.5l-59 -33q-8 21 -20.5 47.5t-27.5 55.5l-152 -56
t-89 -33.5t-45.5 -19t-20.5 -12.5q-4 14 -12 34t-16 33q12 6 26.5 20t14.5 43v696h375v-465h-308v-255l199 67q-14 28 -30 55t-30 51zM422 377v147h-242v-147h242zM180 722v-138h242v138h-242z"     />

    
    <glyph glyph-name="cid12257" unicode="&#x53BB;" d="M460 347q-51 -85 -108.5 -163t-115.5 -141l512 37q-32 47 -68.5 93.5t-72.5 86.5l58 27q34 -37 68 -79t65.5 -84t57.5 -81.5t44 -72.5l-63 -35q-10 20 -23 42t-28 46q-137 -11 -235 -19t-166 -13.5t-110 -9.5t-67.5 -7.5t-38.5 -6.5t-22 -6q-2 11 -8.5 31.5t-13.5 34.5
q16 2 34.5 18.5t38.5 45.5q12 10 32 35.5t45 60t51.5 76t51.5 84.5h-322v67h409v195h-331v66h331v161h69v-161h338v-66h-338v-195h413v-67h-487z"     />

    
    <glyph glyph-name="cid12268" unicode="&#x53C2;" d="M680 454q26 -31 59 -60t69.5 -54t75 -45.5t76.5 -34.5q-11 -10 -24 -25.5t-21 -28.5q-43 19 -86.5 45.5t-84 58.5t-76.5 68.5t-64 75.5h-203q-60 -85 -137.5 -147.5t-168.5 -107.5q-8 10 -23.5 26t-26.5 26q82 35 150.5 86t122.5 117h-261v60h304q30 45 52 99
q-67 -3 -108.5 -6t-65.5 -5t-36 -4t-21 -5q-2 10 -8 30t-11 33q14 2 31.5 10.5t38.5 20.5q11 6 33.5 20.5t51 35t59 45t57.5 51.5l60 -34q-93 -81 -191 -139l402 16q-30 23 -61.5 45.5t-61.5 41.5l51 35q34 -21 70.5 -46t71 -51.5t64 -53t49.5 -48.5l-53 -40
q-13 15 -29.5 31t-36.5 34l-291 -14l9 -2q-11 -26 -23 -51.5t-25 -48.5h506v-60h-265zM605 373q-30 -22 -67 -42.5t-77 -38.5t-81.5 -33t-79.5 -26q-8 10 -19.5 23t-22.5 23q37 10 78 23t80 29t74 33.5t61 36.5zM694 257q-37 -29 -85.5 -55t-102.5 -47.5t-112 -39
t-114 -29.5q-7 11 -17 25.5t-21 24.5q54 10 110 25.5t108.5 34.5t98.5 41.5t79 47.5zM824 147q-47 -46 -112 -82.5t-144 -64t-168.5 -47t-185.5 -31.5q-5 14 -13.5 30t-18.5 28q92 10 178.5 26.5t162.5 41t137.5 56.5t103.5 73z"     />

    
    <glyph glyph-name="cid12282" unicode="&#x53CA;" d="M904 523q-32 -134 -91 -233.5t-139 -172.5q60 -42 130 -73t154 -51q-11 -11 -24 -29t-21 -32q-88 23 -160.5 58t-134.5 82q-67 -51 -143.5 -86.5t-159.5 -59.5q-6 14 -17 31t-21 28q78 20 151 52t138 79q-78 72 -134 163.5t-97 203.5q-6 -66 -20 -135t-42 -138.5
t-73 -137.5t-112 -132q-7 13 -22 29.5t-26 25.5q81 76 127 159.5t69.5 166.5t29 161.5t5.5 146.5v86h-178v66h612q-13 -58 -28 -122.5t-29 -119.5h201l12 3zM340 664q40 -159 107.5 -286t173.5 -219q67 60 118.5 138.5t82.5 178.5h-262q15 47 32.5 111.5t31.5 127.5h-284
v-51z"     />

    
    <glyph glyph-name="cid12284" unicode="&#x53CB;" d="M820 447q-30 -107 -81 -189t-120 -145q69 -47 152.5 -79.5t183.5 -49.5q-11 -11 -23.5 -28.5t-19.5 -31.5q-203 42 -344 147q-69 -52 -146.5 -88t-162.5 -60q-5 13 -15.5 30t-21.5 27q80 20 154 52.5t140 80.5q-112 100 -179 249q-17 -57 -39.5 -113t-52 -108t-66 -99
t-81.5 -86q-11 12 -26.5 23.5t-31.5 20.5q68 54 116 127.5t81 154.5t53 163.5t31 155.5h-249v65h257q8 62 10 106.5t3 63.5h68q-2 -23 -4 -67t-9 -103h533v-65h-542q-5 -32 -11 -66.5t-14 -70.5h401l11 4zM385 400q61 -145 181 -247q54 50 97 111t70 136h-348z"     />

    
    <glyph glyph-name="uni53E3" unicode="&#x53E3;" d="M871 730v-775h-71v81h-599v-86h-68v780h738zM800 103v560h-599v-560h599z"     />

    
    <glyph glyph-name="cid12339" unicode="&#x53EF;" d="M944 697h-124v-674q0 -38 -11 -57t-38 -28q-29 -9 -80 -10.5t-124 -1.5q-4 15 -12.5 36t-16.5 36q31 -2 60.5 -2.5t54.5 -0.5t43.5 0.5t27.5 0.5q16 1 22 7t6 21v673h-692v67h884v-67zM228 177v-80h-64v448h404v-368h-340zM228 482v-242h275v242h-275z"     />

    
    <glyph glyph-name="cid12341" unicode="&#x53F0;" d="M654 718q37 -32 75.5 -69.5t74.5 -76t66 -76t50 -68.5l-57 -40q-12 20 -27.5 42t-35.5 46q-145 -8 -249 -14t-175.5 -10.5t-116 -7.5t-71 -5.5t-39.5 -5.5t-22 -6q-2 11 -9 31.5t-12 33.5q15 4 35 19.5t46 40.5q13 12 40 40.5t60 67.5t68.5 84.5t65.5 92.5l65 -30
q-62 -84 -128.5 -160.5t-135.5 -139.5l530 26q-35 40 -74 79t-76 72zM184 340h632v-413h-70v53h-495v-55h-67v415zM251 276v-232h495v232h-495z"     />

    
    <glyph glyph-name="cid12349" unicode="&#x53F6;" d="M956 423h-245v-500h-68v500h-244v65h244v337h68v-337h245v-65zM364 167h-215v-76h-62v653h277v-577zM149 679v-447h153v447h-153z"     />

    
    <glyph glyph-name="cid12351" unicode="&#x53F7;" d="M349 376q-10 -29 -19.5 -59t-20.5 -58h502l-2 -12q-1 -5 -1.5 -10.5t-0.5 -8.5q-10 -64 -19.5 -110.5t-20 -79.5t-22 -53.5t-25.5 -32.5q-16 -14 -35 -19t-47 -7q-24 -1 -69.5 0t-97.5 5q-2 14 -8 31.5t-15 31.5q27 -3 53 -4.5t48.5 -2t40.5 -1t29 -0.5q17 0 28 1.5
t19 7.5q20 15 36 62t30 141h-521q15 36 32.5 84t32.5 94h-209v61h863v-61h-581zM811 532h-622v262h622v-262zM742 734h-487v-143h487v143z"     />

    
    <glyph glyph-name="cid12352" unicode="&#x53F8;" d="M882 28q0 -36 -9 -55t-34 -28q-26 -9 -72 -11t-113 -2q-2 15 -8.5 36t-14.5 37q54 -2 99 -2t61 1q14 0 19 5t5 19v678h-723v64h790v-742zM700 536h-602v60h602v-60zM628 108h-399v-74h-65v388h464v-314zM229 363v-196h334v196h-334z"     />

    
    <glyph glyph-name="cid53" unicode="&#x54;" d="M255 662h-223v70h531v-70h-224v-662h-84v662z"  horiz-adv-x="594"   />

    
    <glyph glyph-name="cid12374" unicode="&#x5408;" d="M576 808q-7 -12 -15 -23t-17 -22q86 -93 192 -159.5t228 -120.5q-13 -11 -25.5 -27.5t-20.5 -30.5q-119 57 -221.5 125.5t-190.5 164.5q-51 -59 -112 -110.5t-129 -95.5h487v-62h-502v52q-38 -23 -77.5 -44t-80.5 -38q-8 12 -20.5 28.5t-26.5 28.5q71 28 140 66.5
t130.5 85t113 100t89.5 111.5zM200 322h613v-392h-70v54h-476v-58h-67v396zM267 262v-215h476v215h-476z"     />

    
    <glyph glyph-name="cid12375" unicode="&#x5409;" d="M533 630v-154h350v-64h-756v64h337v154h-398v62h398v144h69v-144h399v-62h-399zM185 294h640v-380h-71v50h-502v-50h-67v380zM252 234v-208h502v208h-502z"     />

    
    <glyph glyph-name="cid12378" unicode="&#x540C;" d="M910 11q0 -32 -9.5 -49.5t-30.5 -25.5q-23 -9 -61.5 -11t-103.5 -2q-3 14 -10 32.5t-15 32.5q49 -2 88 -2t52 1q25 1 25 24v709h-688v-798h-65v861h818v-772zM756 551h-507v58h507v-58zM362 129v-74h-62v387h400v-313h-338zM362 385v-199h276v199h-276z"     />

    
    <glyph glyph-name="cid12380" unicode="&#x540D;" d="M845 -75h-67v54h-456v-54h-66v334q-43 -15 -85 -27.5t-84 -22.5q-4 14 -14 32t-20 29q94 20 190 54t186 83q-33 31 -76 65t-82 61l50 38q42 -28 87.5 -63t80.5 -66q78 48 142.5 105.5t110.5 126.5h-379q-49 -48 -108.5 -91t-131.5 -81q-8 11 -21.5 26.5t-24.5 23.5
q60 29 112 64t94 72.5t74.5 75.5t54.5 74l74 -15q-14 -22 -30.5 -44t-35.5 -44h364l12 4l44 -28q-32 -61 -75.5 -114.5t-95.5 -100.5t-111.5 -87t-123.5 -73h411v-411zM778 40v235h-456v-235h456z"     />

    
    <glyph glyph-name="cid12383" unicode="&#x540E;" d="M949 559v-64h-726v-6q0 -62 -4.5 -135t-18.5 -149t-39.5 -149t-68.5 -134q-8 11 -25.5 25t-29.5 21q40 57 63.5 124t35.5 136t15.5 136.5t3.5 124.5v256q89 6 183 14t182.5 18t167 22.5t135.5 26.5l56 -54q-64 -15 -142.5 -27.5t-164 -23t-175 -18t-174.5 -13.5v-131h726
zM312 348h563v-424h-69v52h-427v-53h-67v425zM379 285v-247h427v247h-427z"     />

    
    <glyph glyph-name="cid12386" unicode="&#x5411;" d="M901 18q0 -35 -9.5 -54t-34.5 -27q-26 -9 -71.5 -10t-114.5 -1q-2 14 -9.5 34.5t-15.5 34.5q56 -2 102 -2t62 1q14 1 19.5 6t5.5 19v579h-666v-671h-66v736h275q19 40 36.5 88t27.5 86l78 -20q-17 -38 -34.5 -78.5t-34.5 -75.5h450v-645zM367 130v-73h-62v402h391v-329
h-329zM367 399v-208h267v208h-267z"     />

    
    <glyph glyph-name="cid12433" unicode="&#x542C;" d="M947 447h-133v-521h-67v521h-205q-1 -59 -6 -126.5t-19.5 -136.5t-39.5 -135t-66 -121q-9 11 -27 24t-29 19q40 54 64 118t36 130t15.5 130.5t3.5 120.5v261q50 9 102 20.5t100.5 24.5t91 26.5t74.5 27.5l58 -52q-36 -14 -78.5 -27t-89 -24.5t-95 -22t-95.5 -19.5v-173
h405v-65zM349 167h-205v-76h-63v653h268v-577zM144 679v-447h140v447h-140z"     />

    
    <glyph glyph-name="cid12456" unicode="&#x5438;" d="M917 481q-24 -114 -66.5 -204t-98.5 -162q45 -43 97.5 -76.5t112.5 -56.5q-11 -10 -24.5 -26t-21.5 -29q-119 49 -208 139q-45 -46 -94 -81.5t-103 -62.5q-8 12 -22 28t-25 23q56 26 106 60.5t95 79.5q-48 55 -85.5 120t-67.5 139q-23 -143 -69.5 -254t-129.5 -195
q-8 8 -25.5 20.5t-28.5 19.5q63 57 103.5 133t65 169t36 204t16.5 239h-116v62h452q-15 -65 -35 -138.5t-38 -135.5h121l13 3zM543 708q-2 -54 -5.5 -105.5t-8.5 -99.5q29 -98 73.5 -184t105.5 -157q44 56 77.5 124t55.5 151h-179q17 54 37.5 127t37.5 144h-194zM141 189
v-96h-58v646h244v-550h-186zM141 678v-427h127v427h-127z"     />

    
    <glyph glyph-name="cid12458" unicode="&#x5439;" d="M683 430v-21.5t-1 -22.5q14 -72 37.5 -135.5t57.5 -115.5t79.5 -90.5t103.5 -60.5q-11 -11 -24 -26.5t-21 -29.5q-96 42 -157.5 122.5t-97.5 193.5q-12 -42 -34 -84.5t-57 -83t-85 -79t-118 -72.5q-6 11 -20 25.5t-26 23.5q103 50 162.5 108.5t89.5 119.5t37.5 120
t7.5 110v86h66v-88zM138 167v-76h-63v653h266v-577h-203zM138 679v-447h139v447h-139zM523 593q-23 -63 -51 -118t-61 -100q-4 4 -11.5 9t-15.5 10l-16 10t-14 8q30 38 56 85.5t47 102t37.5 113.5t28.5 121l66 -11q-9 -43 -20 -84.5t-23 -81.5h348l10 3l48 -15
q-9 -33 -19 -68.5t-21 -69t-23 -64t-24 -54.5l-56 19q16 36 32 85t29 100h-347z"     />

    
    <glyph glyph-name="cid12503" unicode="&#x5458;" d="M850 460v-361h-71v299h-550v-305h-68v367h689zM561 119q45 -15 96 -33t101.5 -37t95.5 -37.5t78 -33.5l-35 -56q-31 16 -75 35.5t-94 39.5t-102 39.5t-98 34.5zM531 331v-94q0 -39 -12.5 -81.5t-55.5 -83.5t-126 -80t-224 -70q-6 11 -18.5 27.5t-23.5 27.5
q90 18 154.5 38.5t107.5 43t68.5 45.5t39 46.5t17 45.5t3.5 43v92h70zM812 790v-238h-618v238h618zM262 611h479v121h-479v-121z"     />

    
    <glyph glyph-name="cid12580" unicode="&#x548C;" d="M898 743v-768h-67v76h-233v-83h-65v775h365zM831 115v564h-233v-564h233zM319 542h179v-62h-179v-27q14 -15 38.5 -43.5t50.5 -58.5t48.5 -57t31.5 -39l-41 -54q-9 14 -23.5 35.5t-32 45.5t-36.5 48.5t-36 45.5v-449h-67v453q-19 -44 -41 -88t-46 -83.5t-49 -74.5
t-49 -61q-6 14 -17.5 31.5t-19.5 29.5q28 29 57.5 68.5t56.5 85.5t51 95t41 97h-182v62h198v172q-43 -7 -85.5 -13t-83.5 -11q-2 12 -7.5 27t-10.5 26q49 7 102.5 15.5t104 19t95 22.5t76.5 26l46 -52q-35 -13 -78.5 -24.5t-91.5 -22.5v-185z"     />

    
    <glyph glyph-name="cid12595" unicode="&#x5496;" d="M923 718v-749h-58v77h-133v-85h-55v757h246zM865 106v552h-133v-552h133zM635 600q0 -165 -4.5 -277t-12 -183.5t-17.5 -108.5t-21 -53q-11 -17 -24 -24t-32 -9q-16 -2 -39 -2t-48 2q-1 14 -5 30.5t-11 29.5q26 -2 47 -2.5t32 -0.5q9 0 15.5 2.5t12.5 13.5
q9 11 15.5 44.5t12 98t10 165.5t9.5 247h-92q-3 -106 -11.5 -201t-28 -177.5t-53 -151.5t-85.5 -122q-8 11 -22 23.5t-25 19.5q49 48 80 111.5t49 141t26 167t11 189.5h-87v60h89q1 48 1 97.5v101.5h59q0 -52 -0.5 -101.5t-1.5 -97.5h151v-33zM135 177v-100h-54v684h218
v-584h-164zM135 705v-472h110v472h-110z"     />

    
    <glyph glyph-name="cid12822" unicode="&#x5531;" d="M919 359v-429h-68v35h-394v-40h-65v434h527zM457 301v-107h394v107h-394zM851 23v114h-394v-114h394zM333 189h-188v-96h-61v646h249v-550zM145 678v-427h126v427h-126zM882 432h-458v362h458v-362zM815 588h-327v-102h327v102zM815 739h-327v-100h327v100z"     />

    
    <glyph glyph-name="cid12912" unicode="&#x5561;" d="M958 180h-183v-253h-65v905h65v-167h173v-61h-173v-149h165v-61h-165v-153h183v-61zM536 831h64v-904h-64v246h-184v61h184v160h-153v61h153v149h-159v61h159v166zM314 190h-176v-97h-59v646h235v-549zM138 678v-426h118v426h-118z"     />

    
    <glyph glyph-name="cid13047" unicode="&#x55B1;" d="M953 25v-57h-516v57h230v113h-181v56h181v86h5v9h-174v345h408v-345h-182v-9h6v-86h187v-56h-187v-113h223zM850 438h-126v-99h126v99zM850 584h-126v-98h126v98zM552 486h120v98h-120v-98zM672 339v99h-120v-99h120zM434 720v-283q0 -57 -4 -124t-16 -134.5t-34 -131.5
t-59 -117q-8 9 -22.5 22t-25.5 18q34 50 54 109t30.5 120.5t13 123t2.5 115.5v344h577v-62h-516zM135 205v-85h-56v610h229v-525h-173zM135 669v-403h116v403h-116z"     />

    
    <glyph glyph-name="cid13372" unicode="&#x5668;" d="M667 360q28 -24 63 -45.5t73.5 -39.5t79 -32.5t80.5 -24.5q-11 -10 -22.5 -25.5t-19.5 -27.5q-16 5 -31 10t-31 11v-256h-64v25h-188v-30h-62v305h217q-51 27 -96.5 60t-80.5 70h-191q-33 -35 -73.5 -68t-89.5 -62h217v-300h-64v25h-177v-30h-61v259q-18 -8 -35.5 -16
t-37.5 -16q-4 12 -15 27t-21 23q85 31 151.5 71.5t117.5 86.5h-251v59h310q23 26 40 52.5t30 52.5h-308v266h311v-260l2 4l68 -12q-13 -26 -29 -52t-35 -51h294q-25 17 -59.5 34t-66.5 29l36 37q19 -7 40 -15.5t40.5 -18.5t37 -20t29.5 -20l-24 -26h174v-59h-278zM374 732
h-187v-150h187v150zM384 171h-177v-157h177v157zM795 14v157h-188v-157h188zM871 524h-321v266h321v-266zM807 732h-196v-150h196v150z"     />

    
    <glyph glyph-name="cid13549" unicode="&#x56CA;" d="M881 99q-36 -19 -79.5 -35.5t-85.5 -30.5q53 -20 113.5 -34.5t126.5 -22.5q-9 -9 -18 -22.5t-15 -24.5q-138 20 -249.5 70.5t-174.5 135.5q-71 -38 -171 -67v-74l222 42q-1 -11 -1 -25t2 -22q-95 -19 -151 -31t-87.5 -19t-44 -11.5t-19.5 -8.5q-2 11 -8.5 25t-12.5 21
q5 2 12 6t13 10t10 16t4 24v30q-49 -12 -97.5 -22t-94.5 -16q-5 11 -14 23.5t-17 20.5q43 4 89.5 12t92.5 18t90 22t82 26h-340v41h260v39h-177v39h177v36h-199v40h199v38h-134v117h282v-117h-83v-38h232v38h-85v117h285v-117h-135v-38h206v-40h-206v-36h181v-39h-181v-39
h263v-41h-385q43 -46 105 -77q22 7 46 16t47 19t44 19.5t38 17.5zM584 404h175v46h-175v-46zM238 404h172v46h-172v-46zM383 254h232v36h-232v-36zM383 176h232v39h-232v-39zM128 441h-60v116h398v36h-287v115h287v34h-378v43h378v51h65v-51h380v-43h-380v-34h302v-115h-302
v-36h401v-116h-61v76h-743v-76zM531 671v-42h238v42h-238zM466 629v42h-225v-42h225z"     />

    
    <glyph glyph-name="cid13579" unicode="&#x56DB;" d="M905 748v-783h-69v69h-677v-76h-66v790h812zM836 98v586h-205v-322q0 -24 4.5 -34t21.5 -10h103q12 0 29 1t27 4q1 -14 2 -29.5t3 -27.5q-8 -3 -25 -4t-34 -1h-113q-49 0 -65 23.5t-16 78.5v321h-147q-2 -103 -10 -183.5t-29.5 -141.5t-61 -105.5t-105.5 -75.5
q-5 12 -17.5 27.5t-22.5 24.5q59 27 94 66t54 93.5t25 127t8 167.5h-197v-586h677z"     />

    
    <glyph glyph-name="cid13588" unicode="&#x56E0;" d="M915 794v-868h-64v49h-702v-49h-62v868h828zM851 33v700h-702v-700h702zM523 459q-2 -14 -4.5 -26.5t-5.5 -25.5q39 -34 79.5 -72.5t77 -77.5t67 -75.5t51.5 -66.5l-48 -40q-18 28 -45 61.5t-59 69.5t-67.5 72t-70.5 69q-14 -45 -35 -86t-50 -76.5t-68 -65t-90 -53.5
q-6 13 -18.5 28.5t-23.5 23.5q60 26 102 61.5t70.5 79t46 94t26.5 106.5h-248v61h257q5 40 7 82t4 87h65q-2 -45 -4.5 -86.5t-7.5 -82.5h259v-61h-267z"     />

    
    <glyph glyph-name="cid13593" unicode="&#x56E2;" d="M911 791v-867h-70v42h-685v-42h-67v867h822zM841 27v702h-685v-702h685zM779 495h-160v-328q0 -28 -7 -42t-26 -22t-49.5 -10t-79.5 -2q-2 14 -8.5 30.5t-13.5 29.5q35 -1 64.5 -0.5t38.5 0.5q10 1 13.5 3.5t3.5 12.5v251q-63 -75 -142 -137.5t-157 -107.5q-7 8 -19 21.5
t-23 22.5q43 24 87 54.5t85.5 66t79 75.5t67.5 82h-306v61h328v129h64v-129h160v-61z"     />

    
    <glyph glyph-name="cid13634" unicode="&#x56FD;" d="M910 789v-866h-69v51h-684v-51h-67v866h820zM841 36v691h-684v-691h684zM638 346q14 -12 29 -26.5t29 -29.5t25.5 -29.5t19.5 -26.5l-45 -27q-15 24 -44 56.5t-58 58.5zM779 191v-57h-551v57h236v177h-193v58h193v151h-221v60h515v-60h-232v-151h206v-58h-206v-177h253z
"     />

    
    <glyph glyph-name="cid13648" unicode="&#x5706;" d="M914 794v-868h-66v38h-698v-38h-64v868h828zM848 20v717h-698v-717h698zM547 209q30 -13 63.5 -28.5t66.5 -31t62.5 -30.5t50.5 -27l-27 -49q-21 12 -50.5 28t-62.5 33t-67 33t-64 30zM533 297q0 -30 -9.5 -63.5t-42 -66.5t-94.5 -64.5t-168 -56.5q-5 11 -16 26.5
t-21 25.5q101 20 159 45.5t87.5 52.5t37 53.5t7.5 48.5v60h60v-61zM308 182h-60v260h502v-256h-63v203h-379v-207zM724 504h-451v178h451v-178zM662 634h-329v-81h329v81z"     />

    
    <glyph glyph-name="cid13704" unicode="&#x5728;" d="M935 10v-62h-602v62h267v292h-228v62h228v197h66v-197h230v-62h-230v-292h269zM386 614q-25 -54 -55 -105t-65 -99v-482h-67v402q-27 -30 -57 -57t-64 -50q-5 12 -15.5 29.5t-18.5 28.5q88 63 154.5 149.5t114.5 183.5h-246v64h274q17 39 30.5 78.5t24.5 78.5l68 -17
q-11 -35 -23.5 -70t-26.5 -70h521v-64h-549z"     />

    
    <glyph glyph-name="cid13713" unicode="&#x5730;" d="M823 8q22 0 35.5 6t22 22t12 44.5t6.5 72.5q12 -9 29 -16.5t31 -10.5q-4 -51 -11 -85t-21.5 -54.5t-39 -29.5t-62.5 -9h-252q-42 0 -69 5.5t-43.5 19.5t-23 39t-6.5 63v326l-84 -36l-26 58l110 46v275h63v-248l144 61v279h63v-253l142 60l15 13l12 11l47 -19l-3 -13
q0 -70 -0.5 -132.5t-2 -112.5t-3.5 -84.5t-5 -48.5q-5 -30 -18.5 -44t-35.5 -19q-20 -5 -46 -5.5t-46 -0.5q-2 14 -6 30.5t-10 27.5q19 -2 40.5 -2h29.5q11 0 19 5.5t12 22.5q5 20 6.5 102t1.5 204l-149 -63v-370h-63v344l-144 -61v-353q0 -20 3 -33t12 -20.5t24.5 -10.5
t40.5 -3h249zM239 232q29 13 58 25.5t59 24.5l14 -59q-81 -37 -160.5 -72.5t-145.5 -64.5l-26 66q29 10 64 24t74 31v325h-130v63h130v229h63v-229h120v-63h-120v-300z"     />

    
    <glyph glyph-name="cid13726" unicode="&#x573A;" d="M934 512q-1 -7 -1 -13q0 -5 -0.5 -11t-0.5 -9q-8 -132 -16.5 -222.5t-17.5 -150t-20 -92.5t-24 -49t-28.5 -22.5t-35.5 -8.5q-18 -2 -46 -2t-59 2q0 14 -5 31.5t-13 31.5q31 -3 57 -3t39 -1q12 0 20 2.5t14 11.5q10 10 19.5 38.5t17.5 81t15.5 131.5t14.5 191h-72
q-106 -355 -364 -525q-8 8 -24 20t-27 19q131 77 217.5 200t134.5 286h-88q-35 -98 -94 -175t-132 -129q-7 8 -23 19.5t-27 18.5q71 46 125.5 113.5t86.5 152.5h-82q-73 0 -86 -11q-3 11 -12 30.5t-16 32.5q18 2 44 15.5t55 32.5q12 8 36.5 25t55 40t65.5 51.5t69 59.5h-331
v63h401l14 6l50 -37q-83 -75 -162.5 -136t-154.5 -109h411zM352 239l11 -60q-78 -32 -157 -63t-144 -56l-22 67q29 10 64 22t75 26v354h-124v63h124v232h62v-232h112v-63h-112v-331z"     />

    
    <glyph glyph-name="cid13732" unicode="&#x573E;" d="M917 481q-24 -114 -66.5 -204t-98.5 -161q45 -44 97.5 -77.5t112.5 -56.5q-11 -9 -24.5 -25.5t-21.5 -29.5q-119 49 -208 139q-45 -46 -94 -81.5t-103 -61.5q-8 11 -22 27t-25 23q56 26 106 60.5t95 79.5q-48 55 -85.5 120t-67.5 139q-23 -143 -69.5 -254t-129.5 -195
q-8 8 -25.5 20.5t-28.5 19.5q63 58 103.5 133.5t65 169t36 204t16.5 238.5h-117v62h453q-15 -65 -35 -138.5t-38 -135.5h121l13 3zM543 708q-2 -54 -5.5 -105.5t-8.5 -99.5q29 -98 73.5 -184t105.5 -157q44 56 77.5 124t55.5 151h-179q17 54 37.5 127t37.5 144h-194z
M373 182q-81 -32 -162.5 -64t-148.5 -58l-22 67q61 20 141 49v353h-128v63h128v232h62v-232h119v-63h-119v-330l118 44z"     />

    
    <glyph glyph-name="cid13735" unicode="&#x5740;" d="M957 23v-63h-644v63h125v595h65v-595h155v806h67v-341h219v-64h-219v-401h232zM394 234q-87 -38 -173.5 -74.5t-156.5 -65.5l-25 64q31 11 69 25.5t80 30.5v318h-138v63h138v228h63v-228h133v-63h-133v-292l131 52z"     />

    
    <glyph glyph-name="cid13839" unicode="&#x5783;" d="M956 30v-63h-612v63h349q14 51 28 114.5t27 130.5t24 133.5t18 122.5l70 -13q-10 -58 -22.5 -122.5t-26 -129t-28 -125t-28.5 -111.5h201zM377 184q-83 -33 -165 -66t-150 -59l-21 68q29 10 63.5 22t73.5 26v354h-122v63h122v232h65v-232h111v-63h-111v-330l122 45z
M529 79q-3 39 -10 91.5t-16.5 110.5t-20.5 116.5t-23 111.5l59 12q13 -53 25 -111.5t22 -115t17.5 -107.5t11.5 -89zM929 589h-538v63h538v-63zM636 665q-6 32 -19.5 76.5t-27.5 82.5l62 16q14 -38 28.5 -81t21.5 -75z"     />

    
    <glyph glyph-name="cid13847" unicode="&#x578B;" d="M949 21v-62h-899v62h423v135h-319v61h319v118h67v-118h305v-61h-305v-135h409zM259 532q-5 -32 -14.5 -65t-27 -64t-44 -60t-63.5 -53q-7 9 -21 23.5t-23 22.5q66 42 94 93t36 103h-124v60h129v10v133h-96v59h448v-59h-97v-143h117v-60h-117v-218h-63v218h-134zM263 592
h130v143h-130v-134v-9zM700 447h-61v332h61v-332zM888 381q0 -29 -7.5 -44t-28.5 -23q-22 -8 -58 -9.5t-90 -1.5q-2 14 -8.5 30.5t-14.5 30.5q45 -2 79 -1.5t45 1.5q12 2 15.5 4.5t3.5 13.5v448h64v-449z"     />

    
    <glyph glyph-name="cid14446" unicode="&#x58F0;" d="M532 693v-105h351v-58h-749v58h331v105h-390v58h390v87h67v-87h395v-58h-395zM862 121h-66v50h-586q-12 -66 -41 -132t-85 -120q-7 11 -23 24.5t-27 21.5q40 39 64.5 83.5t37.5 90.5t17 91.5t4 84.5v133h705v-327zM796 391h-265v-162h265v162zM223 391v-77q0 -20 -1 -41
t-3 -44h247v162h-243z"     />

    
    <glyph glyph-name="cid14506" unicode="&#x5916;" d="M707 534q33 -25 69 -54.5t70 -59.5t63.5 -58.5t49.5 -52.5l-53 -46q-18 21 -43.5 47.5t-55.5 54.5t-62 56t-63 53v-549h-68v910h68v-321zM475 685l45 -15q-20 -146 -59 -263.5t-93.5 -208t-122.5 -156.5t-147 -110q-8 13 -25 29.5t-29 24.5q88 46 160.5 117t127.5 171
q-16 15 -36.5 32t-42.5 34.5t-45 33.5t-44 30l40 44q38 -24 81 -54.5t75 -59.5q27 61 48 132t34 153h-197q-29 -80 -65.5 -148t-79.5 -121q-8 9 -26 22t-29 21q34 39 63.5 88.5t53.5 106.5t43 119.5t33 128.5l65 -12q-8 -37 -17 -72t-20 -70h195z"     />

    
    <glyph glyph-name="cid14516" unicode="&#x591A;" d="M939 376q-52 -110 -139.5 -188.5t-197.5 -132t-236.5 -85t-256.5 -46.5q-3 13 -11 32t-16 31q129 13 253 42t231 80q-25 26 -58 54t-64 51l55 31q31 -22 66 -50.5t61 -54.5q68 39 123 88.5t93 111.5h-280q-63 -53 -141 -99t-174 -84q-6 11 -18.5 26t-23.5 24
q76 27 140.5 61t117 71.5t92.5 76.5t67 76l74 -16q-15 -19 -31.5 -38t-36.5 -38h254l13 4zM789 723q-48 -82 -123.5 -148.5t-166 -117.5t-190 -86.5t-194.5 -55.5q-5 13 -14 30.5t-18 28.5q85 15 172.5 43.5t169.5 69.5q-26 23 -58.5 46.5t-63.5 41.5l48 35
q33 -19 69.5 -43.5t62.5 -47.5q62 35 114.5 77.5t90.5 91.5h-287q-51 -42 -109.5 -79.5t-128.5 -69.5q-7 12 -21 25.5t-25 21.5q60 25 112 56t95.5 64t77.5 66.5t58 64.5l73 -15q-15 -19 -31.5 -37t-35.5 -37h268l12 3z"     />

    
    <glyph glyph-name="uni5927" unicode="&#x5927;" d="M557 479q27 -84 65 -160t87.5 -139.5t110.5 -112.5t133 -79q-12 -11 -26 -29t-23 -33q-73 34 -134.5 85.5t-111.5 116.5t-89 143t-68 166q-18 -74 -48 -147.5t-78 -140t-116 -124t-161 -100.5q-8 14 -22.5 29t-27.5 26q94 41 161.5 97t113.5 121.5t74 137t43 143.5h-374
v68h386q12 81 13.5 154.5t2.5 132.5h70q-1 -60 -3.5 -133t-13.5 -154h417v-68h-381z"     />

    
    <glyph glyph-name="cid14595" unicode="&#x594B;" d="M580 644q56 -91 154 -154t225 -91q-11 -10 -23.5 -27t-19.5 -31q-58 15 -113 40v-454h-67v60h-477v-60h-65v453q-27 -12 -56.5 -22.5t-63.5 -19.5q-4 12 -14 28.5t-20 25.5q78 19 137.5 46t104 59.5t76 70t53.5 76.5h-318v61h347q13 33 22 65.5t16 64.5h68
q-7 -32 -16 -65t-21 -65h415v-61h-344zM736 359h-206v-127h206v127zM466 359h-207v-127h207v127zM259 43h207v133h-207v-133zM736 43v133h-206v-133h206zM731 417q-143 84 -219 227h-28q-32 -64 -82.5 -121.5t-131.5 -105.5h461z"     />

    
    <glyph glyph-name="cid14617" unicode="&#x5956;" d="M555 213q48 -99 148.5 -152.5t252.5 -70.5q-11 -11 -23 -28.5t-18 -30.5q-155 23 -258.5 85t-157.5 175q-20 -50 -52.5 -91.5t-82 -75t-119.5 -59t-166 -42.5q-5 13 -14 29t-18 27q91 15 156.5 37t111 51.5t74.5 66t46 79.5h-371v59h391q9 40 15 79h68q-6 -39 -15 -79
h410v-59h-378zM286 518q-54 -29 -107 -56.5t-98 -50.5l-29 57q45 20 106.5 50.5t127.5 62.5v255h63v-485h-63v167zM174 598q-6 16 -16 36t-22.5 41t-27 42.5t-28.5 39.5l52 26q15 -18 29.5 -38.5t27.5 -41t23.5 -40t16.5 -35.5zM938 733q-30 -90 -81 -154t-119 -109
t-150 -73t-174 -45q-5 13 -16 30t-21 26q75 11 142 29.5t124 46.5q-24 29 -58.5 62.5t-67.5 61.5l49 29q34 -26 70 -60t61 -64q51 34 90.5 77.5t66.5 102.5h-283q-30 -32 -64.5 -59.5t-72.5 -48.5q-7 11 -18.5 25.5t-21.5 22.5q33 18 64.5 41.5t58.5 50.5t48 56t34 57
l64 -19q-17 -33 -43 -68h267l12 2z"     />

    
    <glyph glyph-name="cid14697" unicode="&#x597D;" d="M955 348h-224v-342q0 -31 -9 -47t-32 -24t-59 -10t-94 -1q-3 14 -10.5 31.5t-15.5 31.5q46 -1 82.5 -1h47.5q13 1 17.5 5t4.5 15v342h-235v63h235v118q40 32 80.5 78.5t70.5 90.5h-340v61h386l16 4l46 -33q-36 -56 -87 -114.5t-104 -103.5v-101h224v-63zM423 622
q-13 -137 -39.5 -243.5t-67.5 -190.5q36 -31 66.5 -60.5t50.5 -55.5l-45 -56q-19 26 -46 54t-60 57q-42 -68 -94.5 -117t-115.5 -84q-7 12 -19 27.5t-23 24.5q121 61 202 192q-39 33 -80.5 63.5t-81.5 56.5q18 55 36.5 127.5t35.5 150.5h-97v62h109q11 54 19.5 106t14.5 99
l64 -4q-6 -47 -14.5 -98t-19.5 -103h152l12 2zM205 568q-14 -69 -30 -133t-31 -119q30 -20 60 -41.5t59 -44.5q33 69 56 153t34 185h-148z"     />

    
    <glyph glyph-name="cid14709" unicode="&#x5982;" d="M919 727v-763h-65v60h-258v-75h-63v778h386zM854 87v577h-258v-577h258zM475 624q-11 -146 -39.5 -256.5t-73.5 -194.5q35 -29 63.5 -56.5t48.5 -51.5l-45 -55q-18 24 -44.5 50.5t-58.5 54.5q-46 -66 -104 -113t-129 -79q-8 13 -19 29t-22 27q68 26 123 70t100 110
q-42 35 -87 68.5t-87 62.5q19 54 38.5 126.5t36.5 151.5h-125v62h139q11 54 19.5 105.5t14.5 99.5l65 -5q-7 -47 -16 -97.5t-19 -102.5h168l12 2zM240 568q-15 -69 -31.5 -134t-33.5 -120q33 -23 67 -47.5t68 -50.5q35 69 59.5 156t35.5 196h-165z"     />

    
    <glyph glyph-name="cid14905" unicode="&#x59D3;" d="M956 15v-63h-556v63h261v245h-202v63h202v223h-155q-30 -97 -73 -167q-9 8 -27 18t-29 16q22 33 41 75.5t34 90t26.5 99t19.5 104.5l63 -11q-15 -84 -36 -162h136v223h65v-223h212v-63h-212v-223h194v-63h-194v-245h230zM384 625q-8 -134 -29 -238.5t-54 -186.5
q30 -25 55 -48.5t42 -44.5l-39 -56q-15 20 -37.5 42.5t-48.5 45.5q-38 -72 -85.5 -124t-107.5 -88q-7 12 -18 27.5t-22 25.5q56 30 102 79.5t81 121.5q-36 29 -75 57.5t-77 51.5q17 54 35.5 126.5t35.5 151.5h-95v62h107q10 54 18.5 106t13.5 100l63 -5q-6 -47 -14.5 -97.5
t-18.5 -103.5h119l11 2zM203 568q-15 -69 -31 -133t-31 -119q27 -18 55 -37t54 -39q26 67 43.5 148.5t26.5 179.5h-117z"     />

    
    <glyph glyph-name="uni5B50" unicode="&#x5B50;" d="M949 325h-412v-310q0 -35 -10.5 -52.5t-37.5 -25.5q-27 -9 -75 -11t-120 -2q-4 15 -12.5 34.5t-17.5 34.5q63 -2 112 -3t66 1q15 1 21 6t6 19v309h-416v66h416v146q33 15 67.5 34t69 40.5t66.5 44t59 45.5h-578v65h650l14 4l50 -38q-32 -32 -72 -63.5t-83 -61.5t-88 -57
t-87 -48v-111h412v-66z"     />

    
    <glyph glyph-name="cid15835" unicode="&#x5B69;" d="M955 696v-62h-286q-12 -21 -27 -46.5t-30.5 -51.5t-31 -50.5t-28.5 -45.5l169 10q18 23 33.5 48t27.5 49l63 -22q-32 -57 -75.5 -112t-96 -104t-112.5 -91.5t-126 -74.5q-5 11 -17 26t-21 25q77 36 146.5 86.5t126.5 110.5q-66 -5 -106.5 -8.5t-64 -6.5t-34 -5t-17.5 -5
q-2 13 -8 33t-11 31q14 3 31.5 9t28.5 19q7 8 20.5 28.5t29 46t32 52.5t28.5 49h-192v62h263q-8 28 -22 61t-30 62l61 20q20 -32 36.5 -70t23.5 -66l-19 -7h235zM922 346q-31 -55 -70.5 -105t-87.5 -95q25 -21 52 -43.5t52 -45t47 -44t37 -38.5l-51 -44q-14 18 -35 39.5
t-45.5 44.5t-50.5 46.5t-51 44.5q-69 -57 -151 -103.5t-175 -79.5q-6 11 -17.5 27t-20.5 27q85 29 161.5 70.5t141 91.5t115 108.5t82.5 121.5zM263 292v-287q0 -29 -8 -44t-28 -23t-54.5 -10t-88.5 -2q-3 14 -9.5 30.5t-14.5 30.5q42 -2 75 -1.5t44 0.5q11 1 15.5 4.5
t4.5 14.5v265l-141 -47l-14 67q32 9 71 21t84 26v186q14 18 28.5 39.5t28.5 45.5t27.5 49t24.5 48h-242v62h277l14 4l43 -31q-27 -56 -64 -116t-73 -108v-159q31 9 62 19t63 21l8 -60z"     />

    
    <glyph glyph-name="cid15901" unicode="&#x5B89;" d="M735 383q-26 -72 -62 -129.5t-83 -105.5q94 -39 175.5 -79.5t140.5 -77.5l-55 -58q-57 38 -139 80.5t-179 84.5q-79 -62 -179 -102t-223 -68q-5 12 -18 30.5t-24 29.5q115 21 209 54.5t167 84.5q-68 28 -135.5 53t-132.5 45l1 1q26 32 53.5 72t54.5 85h-233v64h271
q25 43 45.5 84.5t37.5 79.5l69 -15q-15 -35 -34 -73t-40 -76h508v-64h-195zM384 383q-43 -72 -83 -127q55 -18 110.5 -38t111.5 -43q90 83 138 208h-277zM165 522h-67v197h370q-11 24 -24 51t-25 50l67 17q16 -29 32 -61t27 -57h357v-197h-69v135h-668v-135z"     />

    
    <glyph glyph-name="cid15937" unicode="&#x5B9A;" d="M533 21q39 -8 82.5 -11t89.5 -3h46.5h74.5t76.5 0.5t53.5 0.5q-8 -13 -15.5 -33t-9.5 -34h-229q-80 0 -148 8.5t-125 31.5t-103 65t-80 108q-26 -72 -63 -130t-88 -103q-8 9 -25 23t-29 22q85 66 128.5 170t60.5 241l67 -7q-5 -35 -11 -67.5t-13 -63.5
q30 -83 78.5 -129.5t113.5 -70.5v425h-254v64h585v-64h-263v-170h301v-63h-301v-210zM152 511h-65v211h392q-9 23 -22 50.5t-27 50.5l65 18q17 -28 34 -61.5t26 -57.5h358v-211h-67v147h-694v-147z"     />

    
    <glyph glyph-name="cid15956" unicode="&#x5BA4;" d="M942 13v-60h-880v60h404v142h-313v59h313v111h68v-111h317v-59h-317v-142h408zM803 295q-10 14 -25 31t-32 35q-120 -10 -205.5 -16.5t-144.5 -11.5t-95.5 -8.5t-58 -6t-32 -5t-17.5 -5.5q-3 10 -9 29.5t-12 32.5q14 2 30.5 11.5t37.5 24.5q8 6 23 18t34.5 28.5t42 36.5
t44.5 43h-209v59h659v-59h-364q-42 -42 -86.5 -81.5t-89.5 -71.5l403 29q-21 20 -43.5 39t-42.5 35l48 31q26 -20 54 -43.5t54 -47.5t49 -47.5t38 -42.5zM140 573h-65v173h405q-9 20 -19.5 41.5t-21.5 38.5l62 19q15 -23 29.5 -50t23.5 -49h373v-173h-67v111h-720v-111z"     />

    
    <glyph glyph-name="cid15989" unicode="&#x5BB4;" d="M747 201q-46 -81 -130 -137q81 -21 150 -44t123 -47l-64 -47q-54 25 -125.5 49.5t-156.5 47.5q-86 -40 -196.5 -63t-247.5 -35q-5 14 -12.5 30t-15.5 27q114 8 208 23.5t170 42.5q-61 14 -124.5 27t-129.5 25q23 21 47 47t49 54h-233v58h281q14 17 25.5 34t22.5 34h-164
v292h553v-292h-365l47 -14q-9 -13 -18.5 -26.5t-20.5 -27.5h518v-58h-191zM287 497h425v75h-425v-75zM287 375h425v77h-425v-77zM373 201q-15 -19 -31 -35.5t-30 -32.5q57 -11 113.5 -22.5t110.5 -25.5q87 46 137 116h-300zM140 577h-64v179h403q-8 19 -20 39t-24 37l63 18
q17 -21 31.5 -46.5t25.5 -47.5h370v-179h-66v120h-719v-120z"     />

    
    <glyph glyph-name="cid15995" unicode="&#x5BB6;" d="M846 436q-35 -28 -76 -58t-83 -58q18 -51 45 -97.5t62 -85.5t77 -69t90 -48q-11 -9 -23.5 -25t-20.5 -29q-98 43 -169 127.5t-112 193.5q-13 -9 -26 -16.5t-26 -15.5q13 -48 15.5 -94.5t-4 -86t-21 -69.5t-35.5 -46q-23 -18 -45 -25t-54 -8q-17 0 -39.5 0.5t-46.5 2.5
q0 14 -5 31t-13 31q27 -2 51.5 -3.5t39.5 -1.5q20 0 35.5 3.5t29.5 16.5q12 9 21.5 26.5t15.5 42t7 54t-3 62.5q-42 -33 -94.5 -65t-109.5 -60.5t-115.5 -52.5t-112.5 -40q-5 14 -15 30t-20 27q60 14 124.5 37.5t125 53.5t113.5 64t91 68q-6 19 -13 37.5t-16 38.5
q-37 -26 -83 -51.5t-95.5 -48.5t-99.5 -43t-95 -34q-5 11 -15 26.5t-19 26.5q47 11 100 29.5t104.5 41.5t97 48t78.5 50q-11 17 -24 33t-27 31q-69 -38 -144 -68t-147 -53q-5 11 -16.5 27.5t-20.5 25.5q48 12 97 28t95.5 35t89.5 41.5t79 47.5h-236v58h579v-58h-255
q-17 -14 -34.5 -27.5t-37.5 -27.5q37 -35 62.5 -75.5t42.5 -83.5q29 19 60 40.5t60.5 44t56 44.5t47.5 42zM154 543h-65v202h376q-8 19 -18 39t-21 37l68 20q14 -22 28 -48t23 -48h373v-202h-67v140h-697v-140z"     />

    
    <glyph glyph-name="cid16096" unicode="&#x5BE8;" d="M697 333q26 -25 58 -49.5t66 -46t69 -40t67 -30.5q-11 -9 -23.5 -24t-20.5 -26q-35 17 -74.5 41t-77.5 52.5t-73.5 60t-62.5 62.5h-241q-28 -34 -64.5 -66.5t-77.5 -61.5h226v99h64v-99h233v-53h-233v-158q0 -27 -6.5 -40t-25.5 -21q-20 -8 -49 -9t-73 -1q-2 14 -7 29.5
t-12 28.5q33 -1 58.5 -1.5t35.5 0.5q9 0 12 3t3 11v158h-231v49q-38 -27 -78 -50t-76 -39q-8 11 -20 25.5t-23 23.5q34 13 70.5 31.5t72 41t68 47.5t58.5 52h-247v55h275v66h-159v47h159v65h-178v48h178v63h64v-63h204v63h64v-63h167v-48h-167v-65h152v-47h-152v-66h271v-55
h-243zM401 501h204v65h-204v-65zM401 388h204v66h-204v-66zM628 119q26 -12 55 -27.5t56.5 -31.5t52 -32t41.5 -29l-39 -44q-17 14 -40.5 30.5t-51.5 33.5t-57 33t-56 29zM374 97q-18 -19 -42.5 -39t-51.5 -38t-55 -34t-53 -26q-7 12 -19.5 26.5t-23.5 22.5q25 8 52.5 20.5
t53.5 27t49 30.5t40 32zM148 591h-61v163h378q-8 17 -17 34.5t-18 32.5l66 19q12 -19 25 -42.5t22 -43.5h371v-163h-63v107h-703v-107z"     />

    
    <glyph glyph-name="cid16156" unicode="&#x5C06;" d="M946 287h-123v-281q0 -30 -8 -46t-31 -24t-62 -9.5t-98 -1.5q-2 14 -9 31.5t-14 31.5q48 -2 85.5 -2t50.5 1t17 5t4 15v280h-407v62h407v127h65v-127h123v-62zM479 252q19 -20 39.5 -42.5t38.5 -46t33 -46t25 -41.5l-58 -33q-9 19 -23 41.5t-31.5 46.5t-37.5 47.5
t-40 43.5zM236 834h65v-909h-65v361q-41 -40 -80.5 -78t-74.5 -70l-38 55q37 30 88 76t105 96v469zM185 495q-9 18 -24 39.5t-33.5 44t-38.5 45t-40 41.5l47 35q19 -18 39.5 -39.5t39.5 -43.5t34.5 -42.5t24.5 -38.5zM585 699q-86 -70 -187 -118q-8 9 -21 22t-23 21
q43 18 84 42t77 51.5t65.5 57t50.5 59.5l66 -19q-23 -32 -52 -61h226l12 3l42 -23q-35 -75 -92 -133t-127.5 -102t-150 -74.5t-160.5 -48.5q-5 13 -14.5 28t-18.5 25q62 13 123.5 32.5t118.5 48.5q-17 24 -44 52t-53 50l49 28q27 -21 55 -48.5t47 -52.5q54 32 98.5 72
t76.5 88h-248z"     />

    
    <glyph glyph-name="cid16163" unicode="&#x5C0A;" d="M950 137h-235v-137q0 -29 -8.5 -44t-31.5 -23t-63 -8.5t-100 -0.5q-2 14 -8.5 30t-14.5 30q51 -2 88.5 -2t51.5 1q13 1 16.5 4.5t3.5 13.5v136h-600v56h600v66h-500v348h234v64h-312v54h246q-14 20 -33 44t-39 44l54 24q23 -23 47 -52.5t38 -50.5l-18 -9h253
q17 25 35.5 56t29.5 56l68 -22q-16 -23 -33 -46.5t-34 -43.5h241v-54h-317v-64h240v-348h-134v-66h235v-56zM609 561v-44q0 -14 6.5 -18.5t29.5 -4.5h117q14 0 18 1t6 4v62h-177zM441 607h110v64h-110v-64zM210 561v-159h576v52h-16h-131q-26 0 -43 2.5t-27 9.5t-14 19
t-4 32v44h-111q-3 -21 -12 -42t-29 -40t-52.5 -35.5t-80.5 -29.5q-5 11 -15 23.5t-19 20.5q43 8 70.5 19t44.5 24.5t24.5 29t9.5 30.5h-171zM210 304h576v55h-576v-55zM271 134q22 -13 46 -29t46.5 -33.5t41.5 -34t31 -31.5l-43 -45q-12 15 -31 32.5t-41 35.5t-45.5 35.5
t-45.5 31.5z"     />

    
    <glyph glyph-name="uni5C0F" unicode="&#x5C0F;" d="M281 573q-13 -55 -31 -114.5t-41.5 -118t-52.5 -112t-65 -95.5q-11 9 -28 21t-30 19q34 40 62 90.5t50 105.5t37.5 111t25.5 107zM769 596q33 -52 64.5 -110t58 -116t46 -112.5t29.5 -98.5l-69 -32q-9 43 -27.5 98t-44 114t-56 118.5t-62.5 112.5zM539 820v-798
q0 -39 -11.5 -57.5t-36.5 -27.5q-25 -8 -70.5 -10.5t-116.5 -2.5q-4 15 -11.5 36t-15.5 36q28 -1 54.5 -1.5t48 -0.5h37.5h24q15 1 21.5 6.5t6.5 21.5v798h70z"     />

    
    <glyph glyph-name="cid16285" unicode="&#x5C55;" d="M890 183q-36 -29 -80 -56.5t-85 -48.5q96 -72 232 -100q-11 -11 -22.5 -26t-18.5 -29q-135 34 -230.5 111t-146.5 193h-144v-213l223 51q-2 -13 -3 -29t1 -27q-96 -24 -153 -38.5t-88.5 -23t-44 -13.5t-19.5 -10q-2 13 -11 30t-17 27q14 7 31 24.5t17 49.5v172h-113v59
h183v111h-154v58h154v93h62v-93h209v93h62v-93h173v-58h-173v-111h212v-59h-345q16 -32 37 -60t46 -54q40 23 83 52.5t73 52.5zM463 286h209v111h-209v-111zM211 561v-65q0 -63 -4 -137.5t-16 -150.5t-35 -149.5t-62 -134.5q-10 8 -28 18.5t-30 15.5q37 59 59 128t33 140
t14 140.5t3 129.5v291h740v-226h-674zM211 728v-108h607v108h-607z"     />

    
    <glyph glyph-name="cid16644" unicode="&#x5D14;" d="M946 -26h-681v-51h-66v433q-26 -29 -54.5 -55t-56.5 -48q-3 4 -9 11t-13 14.5t-14 14.5t-13 12q37 26 72.5 59t68 70.5t60 78.5t48.5 84h-176v199h67v-139h286v178h68v-178h284v139h69v-199h-591l58 -18q-11 -23 -24 -45.5t-28 -44.5h255q-8 20 -20 43t-23 43l60 16
q17 -23 31.5 -51t22.5 -51h285v-57h-305v-97h252v-54h-252v-97h253v-54h-253v-100h339v-56zM541 281h-276v-97h276v97zM541 432h-276v-97h276v97zM265 30h276v100h-276v-100z"     />

    
    <glyph glyph-name="cid17060" unicode="&#x5DE2;" d="M607 143q33 -25 74.5 -48t87.5 -42t94 -33.5t95 -23.5q-11 -11 -24 -28t-20 -30q-51 13 -103.5 32.5t-102.5 44.5t-95 55t-81 63v-209h-67v203q-36 -31 -81.5 -59.5t-95 -53.5t-100.5 -45t-99 -33q-8 14 -21 30t-24 26q44 10 91 26t93 35.5t88 42t77 47.5h-333v59h405v67
h-298v337h677v-337h-312v-67h409v-59h-334zM774 413h-242v-91h242v91zM774 553h-242v-90h242v90zM234 463h231v90h-231v-90zM465 322v91h-231v-91h231zM833 812q-29 -23 -59.5 -44.5t-59.5 -41.5q37 -23 72.5 -47.5t58.5 -44.5l-57 -28q-26 24 -69.5 55.5t-94.5 61.5
q40 29 78.5 59t62.5 53zM287 607q-23 25 -63 55.5t-87 61.5q39 29 76.5 58.5t60.5 52.5l66 -22q-28 -23 -57.5 -45.5t-58.5 -42.5q35 -22 67.5 -46.5t53.5 -44.5zM533 610q-26 24 -67 54.5t-90 60.5q40 29 77.5 58.5t61.5 51.5l67 -22q-28 -23 -58 -44.5t-59 -41.5
q35 -21 69 -45.5t57 -44.5z"     />

    
    <glyph glyph-name="uni5DE5" unicode="&#x5DE5;" d="M947 69v-67h-891v67h406v584h-355v68h791v-68h-363v-584h412z"     />

    
    <glyph glyph-name="cid17084" unicode="&#x5DF4;" d="M741 10q39 0 63 7.5t38 27t21.5 53t12.5 85.5q13 -9 32.5 -16.5t34.5 -10.5q-6 -59 -17 -99.5t-33 -65.5t-58.5 -35.5t-93.5 -10.5h-402q-59 0 -99 7t-64 25.5t-34 50t-10 80.5v670h723v-471h-68v53h-587v-254q0 -29 5 -47.5t19.5 -29t40.5 -15t67 -4.5h409zM787 713
h-260v-289h260v289zM200 713v-289h261v289h-261z"     />

    
    <glyph glyph-name="cid17105" unicode="&#x5E02;" d="M531 623v-140h325v-353q0 -30 -9 -47t-32 -25q-25 -8 -67.5 -10t-107.5 -2q-2 16 -9 34t-14 32q53 -2 94 -2t55 1q13 1 17.5 5t4.5 15v287h-257v-493h-68v493h-242v-376h-67v441h309v140h-408v65h432q-13 29 -32 66t-37 68l63 21q11 -18 22.5 -38t22 -39.5t19.5 -38
t15 -32.5l-19 -7h406v-65h-416z"     />

    
    <glyph glyph-name="cid17156" unicode="&#x5E26;" d="M947 713v-58h-162v-107h-66v107h-188v-103h-66v103h-179v-105h-66v105h-165v58h165v117h66v-117h179v117h66v-117h188v117h66v-117h162zM83 500h836v-200h-67v142h-321v-118h293v-237q0 -26 -7 -40.5t-27 -22.5t-54.5 -9t-87.5 -1q-2 14 -7.5 29.5t-13.5 29.5
q42 -2 72 -2t41 1t14 4t3 12v177h-226v-341h-68v341h-205v-252h-66v311h271v118h-316v-142h-64v200z"     />

    
    <glyph glyph-name="cid17283" unicode="&#x5E74;" d="M950 156h-367v-232h-67v232h-464v64h165v270h299v159h-248q-35 -59 -74 -109.5t-81 -90.5q-10 8 -27 21t-31 21q72 62 132 153.5t98 193.5l66 -16q-11 -28 -22.5 -55.5t-25.5 -53.5h600v-64h-320v-159h299v-63h-299v-207h367v-64zM516 220v207h-232v-207h232z"     />

    
    <glyph glyph-name="cid17336" unicode="&#x5E8F;" d="M947 722v-62h-758v-214q0 -57 -3.5 -125.5t-13.5 -138.5t-29.5 -137.5t-50.5 -123.5q-9 9 -26.5 20.5t-28.5 16.5q30 54 47.5 116.5t26.5 127t11.5 127.5t2.5 117v276h397q-11 23 -24 49.5t-24 49.5l62 19q17 -28 34 -60.5t28 -57.5h349zM897 341l47 -21
q-40 -54 -82 -107.5t-80 -90.5l-53 27q26 25 55.5 59.5t55.5 70.5h-229v-275q0 -32 -9.5 -47.5t-35.5 -23.5t-70.5 -9t-112.5 -1q-3 15 -9.5 32t-14.5 31q57 -2 102 -2t60 1q14 1 18.5 5t4.5 15v274h-316v58h364q-50 26 -108.5 54.5t-110.5 51.5l39 39q35 -14 73.5 -31.5
t76.5 -35.5q45 23 90 53t81 62h-445v56h504l15 3l43 -32q-45 -47 -106 -91.5t-123 -78.5q23 -11 43.5 -21.5t36.5 -20.5l-7 -8h190z"     />

    
    <glyph glyph-name="cid17349" unicode="&#x5E97;" d="M939 711v-63h-742v-197q0 -57 -3.5 -125.5t-15 -139t-32 -138.5t-54.5 -124q-9 8 -26.5 20t-30.5 17q32 54 51 117t28.5 128t12.5 128t3 117v260h395q-11 26 -25.5 53.5t-30.5 50.5l64 17q20 -28 38 -60.5t29 -60.5h339zM580 491h327v-61h-327v-142h279v-348h-67v37h-435
v-39h-65v350h221v326h67v-123zM792 226h-435v-189h435v189z"     />

    
    <glyph glyph-name="cid17374" unicode="&#x5EA6;" d="M860 244q-35 -65 -89.5 -113.5t-123.5 -84.5q139 -49 310 -64q-11 -11 -21.5 -28t-16.5 -30q-95 12 -182 33.5t-162 55.5q-81 -32 -172 -52t-185 -31q-4 11 -12 28t-16 29q82 7 162.5 22t152.5 39q-51 29 -93 65.5t-74 80.5l36 15h-137v55h569l13 3zM400 209
q32 -41 76.5 -74t99.5 -59q58 25 105.5 58t81.5 75h-363zM387 333v166h-165v56h165v90h63v-90h253v90h66v-90h164v-56h-164v-166h-382zM450 499v-112h253v112h-253zM197 463q0 -59 -3.5 -128.5t-13.5 -141.5t-29 -141.5t-50 -127.5q-10 8 -28.5 17t-30.5 13q30 56 48 121.5
t27 133t11.5 133t2.5 121.5v271h388q-9 22 -21 46t-23 44l66 16q15 -24 29 -53t24 -53h350v-63h-747v-208z"     />

    
    <glyph glyph-name="cid17540" unicode="&#x5EF7;" d="M357 478q-14 -112 -39 -200t-61 -159q38 -33 83.5 -54.5t97.5 -34t109.5 -17t120.5 -4.5h32h50.5h60.5h61t53 0.5t36 0.5q-8 -13 -15.5 -32t-10.5 -33h-268q-69 0 -131.5 5.5t-118 19t-104 37t-89.5 59.5q-58 -89 -138 -142q-8 11 -23 25.5t-26 22.5q84 50 142 141
q-32 39 -59 90.5t-48 118.5l52 22q17 -56 38.5 -99t48.5 -78q53 104 77 260h-198q18 28 38 62t41 71t41.5 75.5t39.5 74.5h-192v60h222l1 1h70q-18 -34 -37.5 -70.5t-40 -73.5t-41 -73t-39.5 -67h115l10 2zM943 137h-566v60h249v241h-208v62h208v217q-55 -8 -109.5 -13
t-105.5 -9q-2 12 -7 27.5t-11 27.5q62 6 129 13.5t131.5 17t122 21.5t99.5 26l37 -56q-45 -14 -101.5 -26t-119.5 -21v-225h220v-62h-220v-241h252v-60z"     />

    
    <glyph glyph-name="cid17555" unicode="&#x5F00;" d="M945 350h-225v-427h-68v427h-291q-5 -59 -18.5 -117.5t-42 -113t-74.5 -105t-115 -93.5q-8 11 -23.5 25.5t-28.5 22.5q64 40 106.5 85t69.5 93.5t40 99.5t18 103h-237v64h241q1 11 1 22.5v22.5v246h-204v64h819v-64h-193v-291h225v-64zM652 414v291h-287v-246v-22.5
t-1 -22.5h288z"     />

    
    <glyph glyph-name="cid17581" unicode="&#x5F0F;" d="M646 582q9 -130 28.5 -238.5t47 -187t62 -122t73.5 -43.5q21 0 31.5 44t15.5 146q11 -11 27.5 -21t30.5 -15q-5 -65 -12 -107.5t-20 -68.5t-32 -36.5t-46 -10.5q-60 0 -107 50.5t-80.5 139.5t-55 209.5t-31.5 260.5h-520v65h516q-3 45 -4 91t-2 93h70q0 -48 1 -93.5
t3 -90.5h301v-65h-297zM342 78q54 11 109 23t109 24l6 -59q-64 -15 -129.5 -30.5t-128 -29.5t-119.5 -27.5t-105 -23.5l-21 64q42 8 96.5 19.5t116.5 24.5v300h-183v64h440v-64h-191v-285zM852 663q-11 13 -27.5 29.5t-36 33.5t-40.5 33.5t-41 30.5l45 37q19 -13 40.5 -29
t41 -32t36.5 -32t29 -29z"     />

    
    <glyph glyph-name="cid17614" unicode="&#x5F20;" d="M722 382q16 -65 39.5 -124t54 -109.5t68.5 -90.5t83 -66q-12 -10 -25 -25t-21 -28q-48 32 -88.5 78t-73.5 103t-58 123t-42 139h-103v-353l157 60q0 -14 1 -32t3 -29q-75 -31 -120 -50t-70 -30.5t-35.5 -18t-16.5 -11.5q-4 12 -12.5 29.5t-16.5 28.5q14 6 29.5 21
t15.5 45v340h-115v64h115v370h65v-370h398v-64h-232zM365 339q-1 -6 -1 -11q-1 -5 -1 -10v-8q-5 -88 -10 -149.5t-11 -102t-13.5 -63.5t-17.5 -34q-13 -14 -27.5 -19.5t-37.5 -7.5q-19 -2 -53.5 -1.5t-71.5 2.5q-2 14 -7 30t-14 29q39 -3 72.5 -3t47.5 -1q13 0 20.5 1.5
t14.5 8.5t12.5 25t10.5 51t9 82.5t8 119.5h-200q4 29 8 65.5t8 75.5t7 78.5t5 74.5h172v161h-197v62h261v-286h-179q-4 -43 -7.5 -87t-8.5 -83h201zM912 771q-48 -87 -119 -163t-147 -128q-8 8 -24 21.5t-27 21.5q76 48 142.5 118t109.5 149z"     />

    
    <glyph glyph-name="cid17664" unicode="&#x5F39;" d="M956 113h-263v-189h-67v189h-271v60h271v86h-213v365h283q14 22 29.5 48t30 54t28 55t23.5 51l66 -22q-25 -47 -53.5 -96t-55.5 -90h148v-365h-219v-86h263v-60zM848 416h-155v-102h155v102zM848 569h-155v-101h155v101zM475 468h151v101h-151v-101zM626 314v102h-151
v-102h151zM338 343q-1 -7 -1 -12v-18q-5 -89 -9.5 -151.5t-10.5 -104.5t-13.5 -65.5t-17.5 -34.5q-13 -14 -27 -20.5t-36 -8.5q-18 -2 -51 -1t-69 3q-2 15 -7 33t-14 32q38 -4 70.5 -5t46.5 -1q13 0 20 2t14 9t13 25.5t10.5 52.5t9 84.5t8.5 121.5h-208q2 28 4 63t3.5 72.5
t2 76t0.5 72.5h197v160h-212v60h275v-281h-202q-1 -42 -2.5 -84t-3.5 -80h210zM554 643q-7 16 -17.5 36.5t-23 42t-26.5 43t-28 39.5l53 23q14 -18 28.5 -38.5t27.5 -41.5t23.5 -40.5t17.5 -35.5z"     />

    
    <glyph glyph-name="cid17819" unicode="&#x5F90;" d="M808 227q21 -24 42 -51.5t39.5 -55t33.5 -53.5t25 -48l-56 -30q-9 22 -24 48.5t-33 54.5t-38.5 56t-40.5 52zM664 279v-275q0 -29 -7.5 -44.5t-27.5 -23.5t-55.5 -10t-89.5 -2q-2 14 -8 31t-14 31q42 -2 74.5 -2t43.5 1t15 5t4 14v275h-264v60h264v132h-155v59h385
q-54 39 -104.5 87.5t-100.5 112.5q-56 -78 -128 -144.5t-150 -113.5q-8 12 -19.5 25t-23.5 24q48 25 94.5 60t88.5 76.5t77 87t61 93.5l54 -22q-5 -10 -10.5 -18.5t-10.5 -18.5q67 -90 143.5 -150t156.5 -103q-12 -10 -24.5 -24.5t-19.5 -28.5q-21 13 -40.5 26.5t-39.5 27.5
v-56h-169v-132h268v-60h-268zM494 207q-25 -61 -60.5 -121t-71.5 -103q-10 8 -27 18.5t-28 15.5q38 40 71 94.5t55 111.5zM334 617q-19 -33 -41.5 -66t-47.5 -65v-566h-62v493q-29 -32 -59.5 -60.5t-60.5 -52.5q-5 9 -17.5 28t-21.5 30q35 25 70 57.5t67.5 68.5t61 75.5
t51.5 79.5zM310 811q-21 -31 -49 -63t-58.5 -63t-63.5 -58.5t-65 -49.5q-7 10 -18 24.5t-19 22.5q29 20 60 45.5t59.5 53t52.5 56.5t41 56z"     />

    
    <glyph glyph-name="uni5FC3" unicode="&#x5FC3;" d="M365 559v-499q0 -17 3 -27.5t10.5 -16.5t21 -8.5t34.5 -2.5h201q24 0 38.5 8.5t23 31.5t12.5 64.5t7 107.5q12 -10 30.5 -18t32.5 -13q-4 -71 -11 -117.5t-22 -75t-41 -40t-67 -11.5h-207q-39 0 -65 5.5t-41 19t-21.5 37t-6.5 58.5v497h68zM205 469q-6 -43 -15 -94.5
t-20.5 -103.5t-25.5 -101.5t-29 -89.5l-66 29q16 38 30.5 85t26.5 96.5t20.5 99t14.5 92.5zM825 507q22 -45 43 -95t39 -99.5t31.5 -96.5t21.5 -85l-64 -25q-8 38 -21.5 85.5t-31 97.5t-38 100t-41.5 94zM390 797q35 -24 73.5 -53t74.5 -59t67.5 -58.5t52.5 -52.5l-47 -49
q-20 24 -51 53t-66.5 60t-74 61t-73.5 55z"     />

    
    <glyph glyph-name="cid17985" unicode="&#x5FF5;" d="M542 828q-4 -5 -7.5 -9.5t-7.5 -9.5q38 -38 89 -75t108 -69.5t117.5 -59t116.5 -44.5q-11 -11 -24.5 -27.5t-21.5 -29.5q-53 19 -110 47t-112.5 62t-107 72.5t-93.5 78.5q-82 -88 -189.5 -155.5t-220.5 -114.5q-3 6 -7.5 13.5t-10 16t-11.5 16t-11 12.5q65 23 129 54
t121.5 69.5t106.5 82.5t85 94zM805 260q22 -29 44 -61.5t41.5 -65.5t35.5 -63.5t25 -55.5l-60 -28q-9 25 -24 56.5t-34 65t-40.5 66.5t-43.5 62zM646 10q19 0 31.5 4t19.5 16.5t10 35t5 60.5q12 -8 30 -14.5t32 -10.5q-4 -46 -10.5 -75.5t-20 -46.5t-36 -23.5t-57.5 -6.5
h-237q-42 0 -69 4t-42.5 15t-22 29.5t-6.5 47.5v206h65v-206q0 -11 3 -18t11 -10.5t23.5 -5t39.5 -1.5h231zM416 344q24 -20 50 -44t49 -48.5t43 -48.5t32 -44l-53 -38q-12 20 -31 44t-42 49.5t-48 50.5t-50 46zM549 516q-11 12 -26.5 26t-34.5 27.5t-39 26.5t-39 23l39 39
q19 -10 39.5 -22.5t39.5 -25.5t35 -26t27 -25zM176 487h566l10 3l45 -29q-17 -29 -40 -59.5t-48.5 -59.5t-52 -55.5t-51.5 -47.5q-10 8 -24 18t-26 15q38 30 76.5 72t67.5 84h-523v59zM47 1q17 24 32 54t28 62.5t23.5 65t18.5 61.5l56 -20q-8 -30 -18 -63.5t-23 -67.5
t-27.5 -65t-31.5 -56z"     />

    
    <glyph glyph-name="cid18005" unicode="&#x6000;" d="M709 534q32 -30 66.5 -64t66.5 -68t60 -66.5t47 -57.5l-52 -43q-18 26 -45.5 59t-59 68t-66 70t-65.5 65zM707 705q-12 -30 -25 -59t-28 -58v-660h-65v549q-51 -78 -109.5 -142.5t-124.5 -115.5q-8 10 -24.5 26t-27.5 25q106 75 191.5 187.5t139.5 247.5h-280v64h585v-64
h-232zM337 471q-5 18 -13 40.5t-18 47t-21 49.5t-21 47l49 22q11 -22 22.5 -46.5t22 -48.5t19 -46t13.5 -39zM183 836h66v-910h-66v910zM34 389q10 25 18.5 56.5t15 65.5t11 68.5t7.5 64.5l53 -8q-2 -30 -6.5 -65t-11 -70.5t-14.5 -69t-18 -60.5z"     />

    
    <glyph glyph-name="cid18057" unicode="&#x6025;" d="M827 205q18 -24 35.5 -51.5t33 -55t28.5 -53.5t21 -47l-61 -27q-8 21 -20 47.5t-27.5 54.5t-33 56.5t-34.5 52.5zM638 0q20 0 32.5 3.5t19.5 15.5t10 34t5 59q11 -9 29 -15.5t33 -9.5q-4 -45 -11 -73.5t-20.5 -45t-36 -22.5t-56.5 -6h-237q-42 0 -69 4t-42.5 14t-22 28
t-6.5 45v150h66v-150q0 -10 3 -16t11 -9.5t23 -4.5t39 -1h230zM47 -10q15 19 30 42.5t28.5 49t25 50.5t20.5 46l56 -26q-9 -21 -21 -46.5t-24.5 -51t-26.5 -49.5t-28 -44zM464 244q21 -18 43 -39.5t42 -43.5t36.5 -42.5t27.5 -38.5l-54 -35q-10 17 -26.5 38.5t-36 43.5
t-40.5 44t-42 41zM179 567q-18 -15 -37 -29t-40 -28q-7 12 -21 26t-26 22q100 60 167 135.5t102 143.5l72 -12q-9 -17 -19.5 -33t-21.5 -33h285l11 3l45 -29q-17 -32 -40 -66.5t-47 -64.5h206v-348h-657v56h592v93h-558v53h558v90h-571v21zM314 703q-20 -26 -44 -51.5
t-50 -49.5h313q18 22 37 48.5t33 52.5h-289z"     />

    
    <glyph glyph-name="cid18090" unicode="&#x603B;" d="M810 244q22 -25 43.5 -53.5t40.5 -57t34 -56t23 -50.5l-53 -33q-8 23 -22.5 51t-33.5 57t-40 58t-43 55zM651 -4q18 0 29.5 3.5t18.5 14.5t10 31.5t5 54.5q12 -8 30 -15t32 -10q-4 -42 -10.5 -69t-20 -42.5t-35 -21.5t-54.5 -6h-229q-42 0 -69.5 4t-43.5 15t-22.5 29
t-6.5 47v209h69v-209q0 -11 3 -18t11 -10.5t23 -5t39 -1.5h221zM48 11q16 19 30 44t26.5 53t22.5 57.5t17 58.5l62 -13q-14 -60 -39 -122.5t-59 -107.5zM458 310q25 -17 51.5 -37.5t51 -42t45 -42t34.5 -38.5l-48 -43q-14 18 -34.5 40t-45 44t-50.5 43.5t-51 38.5zM814 322
h-623v310h383q15 22 31 47.5t31 52.5t28 53t23 49l68 -29q-26 -42 -53.5 -88t-53.5 -85h166v-310zM741 570h-480v-185h480v185zM367 633q-6 17 -17 38.5t-25 44.5t-29.5 45.5t-31.5 42.5l56 27q16 -20 32.5 -42t30.5 -44.5t25.5 -43.5t18.5 -39z"     />

    
    <glyph glyph-name="cid18178" unicode="&#x606F;" d="M824 217q18 -23 35.5 -48.5t33 -51.5t27.5 -51t19 -45l-61 -28q-7 20 -19 45t-27 51.5t-32 53t-35 49.5zM637 4q21 0 33.5 4t19.5 16.5t10 35.5t5 62q12 -9 30 -16t32 -10q-3 -47 -10 -76.5t-20.5 -46.5t-36.5 -23.5t-58 -6.5h-236q-41 0 -68 4t-43 14.5t-22.5 28.5
t-6.5 46v166h66v-166q0 -10 3 -16t11 -9.5t23 -5t39 -1.5h229zM51 0q15 20 29.5 45.5t28 52.5t25 53.5t20.5 49.5l57 -24q-10 -23 -22 -50.5t-24.5 -55t-26 -53.5t-27.5 -47zM471 270q19 -17 39.5 -36.5t39 -40t34 -40.5t26.5 -36l-54 -33q-10 16 -25 36.5t-33 41.5
t-38.5 41.5t-39.5 37.5zM801 271h-603v471h233q11 24 22 52.5t18 50.5l75 -14l-24 -46t-23 -43h302v-471zM735 412h-473v-87h473v87zM735 550h-473v-86h473v86zM735 688h-473v-86h473v86z"     />

    
    <glyph glyph-name="cid18272" unicode="&#x60A8;" d="M828 225q18 -26 35 -55.5t32 -59t27 -57.5t18 -51l-64 -26q-6 23 -16.5 51t-25 58t-31 60.5t-33.5 57.5zM653 5q21 0 33.5 4t20 16.5t10.5 35.5t5 62q12 -9 30 -16t32 -10q-4 -47 -11 -76.5t-21 -46.5t-36.5 -23.5t-58.5 -6.5h-247q-43 0 -70.5 4t-44 14.5t-23 28.5
t-6.5 47v177h66v-176q0 -11 3 -17.5t11.5 -10t24 -5t41.5 -1.5h241zM339 818q-19 -38 -41.5 -74t-48.5 -71v-404h-64v324q-25 -28 -50 -53.5t-51 -46.5q-7 9 -20.5 25t-23.5 25q34 27 68 60.5t64.5 71.5t58 79.5t48.5 83.5zM53 -6q15 22 30 49.5t28.5 56t24.5 56.5t20 52
l59 -24q-10 -24 -21.5 -53t-24 -58t-26.5 -57t-28 -51zM683 346q0 -26 -6.5 -40t-25.5 -22q-20 -8 -50.5 -9.5t-78.5 -1.5q-2 14 -8.5 30t-12.5 29q37 -1 65 -1t37 1q10 1 13 3.5t3 10.5v298h64v-298zM531 545q-23 -60 -60 -116t-76 -94q-8 8 -24 19t-27 18q40 36 73 86
t53 103zM558 84q-10 18 -25.5 40.5t-35 46.5t-41 47t-42.5 43l52 30q21 -20 42.5 -42.5t41 -45.5t36 -45.5t27.5 -40.5zM797 564q19 -23 38.5 -49.5t36.5 -53t30.5 -51.5t21.5 -46l-57 -30q-8 21 -21.5 47t-30 53t-35 54t-36.5 51zM465 681q-23 -40 -50 -75t-56 -62
q-8 8 -24 21t-26 20q51 46 93.5 111.5t68.5 137.5l61 -15q-8 -20 -16.5 -40t-17.5 -40h385l11 3l46 -13q-20 -42 -41.5 -87.5t-41.5 -75.5l-56 12q12 21 25.5 48t25.5 55h-387z"     />

    
    <glyph glyph-name="cid18324" unicode="&#x60C5;" d="M953 511v-52h-649v52h289v75h-236v50h236v67h-260v52h260v80h65v-80h267v-52h-267v-67h242v-50h-242v-75h295zM873 2q0 -26 -6.5 -40t-26.5 -22t-54 -9.5t-88 -0.5q-2 12 -8 28t-11 29q39 -2 71 -1.5t41 0.5q11 1 15 4t4 13v79h-371v-156h-63v472h497v-396zM439 346v-80
h371v80h-371zM810 133v82h-371v-82h371zM275 687q8 -17 16.5 -36t15.5 -37.5t13 -35.5t9 -30l-48 -25q-6 29 -21 70t-30 76zM155 835h61v-909h-61v909zM32 390q9 25 16.5 57t13.5 66t10 68t7 64l50 -7q-2 -29 -5.5 -63.5t-9 -70.5t-13 -70t-16.5 -62z"     />

    
    <glyph glyph-name="cid18371" unicode="&#x60E0;" d="M810 173q18 -21 36.5 -45.5t35 -49.5t29.5 -48.5t21 -42.5l-59 -22q-8 19 -21 42.5t-28.5 48.5t-33.5 50t-36 47zM632 -6q18 0 29.5 3.5t18.5 14.5t9.5 31t4.5 54q12 -8 29 -14t31 -9q-3 -41 -9.5 -67.5t-19.5 -41.5t-34.5 -21t-54.5 -6h-232q-41 0 -67 3.5t-42 13
t-22 26.5t-6 43v146h65v-145q0 -10 2.5 -16t11 -9.5t23 -4.5t38.5 -1h225zM58 -13q15 18 28.5 41t25.5 47.5t22 50t18 47.5l56 -22q-8 -24 -18 -50t-21.5 -52t-25 -50.5t-28.5 -43.5zM577 69q-14 13 -33.5 28.5t-42 30.5t-47 29.5t-47.5 25.5l41 36q23 -10 48 -23.5
t48 -27.5t42.5 -28.5t33.5 -27.5zM79 288q76 0 173.5 0.5t209.5 1.5v82h-312v276h312v68h-381v55h381v63h67v-63h391v-55h-391v-68h321v-276h-321v-81q50 0 101 0.5t102 1.5q-23 12 -45 23.5t-45 20.5l43 33q33 -13 68 -31t67.5 -37.5t60.5 -40t48 -38.5l-45 -39
q-13 14 -31 28.5t-39 29.5q-100 -2 -201 -4t-196.5 -4t-181 -3t-153.5 -2zM785 489h-256v-71h256v71zM529 602v-69h256v69h-256zM213 533h249v69h-249v-69zM462 418v71h-249v-71h249z"     />

    
    <glyph glyph-name="cid18477" unicode="&#x611F;" d="M822 182q16 -21 32.5 -45.5t31.5 -49t27.5 -47.5t20.5 -42l-63 -25q-7 19 -19 43t-26.5 49t-30.5 50t-31 47zM637 -12q21 0 33.5 4t20 16.5t10.5 36.5t5 63q11 -8 29.5 -14.5t32.5 -9.5q-4 -46 -10.5 -75.5t-20.5 -46t-37 -23t-59 -6.5h-235q-41 0 -68 3.5t-43 13.5
t-22.5 26.5t-6.5 42.5v169h66v-169q0 -10 3 -16t11 -9.5t23 -4.5t39 -1h229zM530 286h-279v209h279v-209zM476 446h-170v-111h170v111zM549 558h-312v49h312v-49zM51 -17q15 18 30 40t28.5 46t25.5 47.5t21 43.5l57 -23q-11 -20 -22.5 -43.5t-24.5 -48t-26.5 -47.5
t-27.5 -41zM468 230q18 -17 37 -36.5t37.5 -40t34 -39.5t26.5 -34l-55 -31q-10 16 -25 35.5t-33 40t-37.5 41t-37.5 38.5zM194 583q0 -42 -4 -92t-14.5 -101.5t-29 -101.5t-48.5 -92q-8 10 -23.5 23.5t-25.5 18.5q27 39 43.5 83.5t25.5 90.5t11.5 89.5t2.5 81.5v150h448
q-3 25 -4.5 51t-2.5 52h64q2 -54 6 -103h171q-23 19 -56 38.5t-65 33.5l40 32q34 -14 70.5 -34.5t57.5 -39.5l-32 -30h115v-56h-295q20 -148 64 -249q70 89 110 196l59 -14q-26 -69 -61 -129t-79 -112q28 -47 58 -72t60 -25q18 0 26.5 29t11.5 98q11 -9 26 -16.5t27 -11.5
q-4 -47 -10.5 -77.5t-17.5 -49t-27 -26t-39 -7.5q-46 0 -86 28.5t-73 81.5q-29 -29 -60 -53.5t-64 -46.5q-7 9 -21.5 23t-25.5 22q75 44 141 110q-29 60 -49.5 136t-32.5 165h-392v-94z"     />

    
    <glyph glyph-name="cid18534" unicode="&#x613F;" d="M814 189q16 -20 33.5 -43t34 -46t31 -44.5t24.5 -37.5l-54 -26q-10 16 -24 38t-30 45.5t-33 47.5t-33 44zM671 -5q16 0 26.5 3t16 13.5t8 30.5t4.5 53q11 -7 26.5 -13.5t28.5 -8.5q-3 -41 -9 -66.5t-17.5 -40.5t-30 -20.5t-47.5 -5.5h-197q-36 0 -59 3.5t-36.5 12.5
t-19 25t-5.5 41v149h59v-148q0 -9 2.5 -14.5t9.5 -8.5t19.5 -4t32.5 -1h188zM177 -10q12 18 23.5 40.5t21.5 47t18.5 49t14.5 46.5l50 -19q-7 -22 -15 -47t-17.5 -50t-20.5 -48.5t-23 -41.5zM857 226q-16 12 -38 27.5t-47 32.5t-51 33.5t-50 31.5l41 35q23 -13 49.5 -28.5
t51.5 -31.5t47.5 -31.5t38.5 -27.5zM428 365q-18 -18 -40 -36.5t-45 -37t-46 -35t-43 -29.5q-8 8 -23 20.5t-26 19.5q44 24 88.5 55.5t77.5 62.5zM539 202q15 -13 31 -28.5t31.5 -31.5t29 -30.5t22.5 -26.5l-47 -32q-9 12 -22 27t-28 31.5t-31 33t-31 30.5zM851 404h-263
v-121q0 -23 -6 -34.5t-24 -18.5t-47 -8t-75 -1q-2 12 -9 25.5t-13 24.5q35 -1 62 -1t35 1q16 0 16 13v120h-249v261h220q5 18 10.5 36.5t8.5 32.5l73 -13q-7 -14 -13 -28.5t-12 -27.5h286v-261zM787 513h-448v-65h448v65zM787 621h-448v-65h448v65zM187 514q0 -63 -3 -139.5
t-13 -156t-28.5 -156.5t-49.5 -142q-4 4 -11 9.5t-14.5 11t-14.5 10t-12 6.5q29 62 45.5 134t25 146t11 145t2.5 131v280h788v-55h-726v-224z"     />

    
    <glyph glyph-name="cid18925" unicode="&#x6210;" d="M884 498q-65 -197 -175 -338q29 -77 64 -119t76 -42q22 0 32.5 42.5t15.5 142.5q11 -11 27.5 -21t29.5 -14q-5 -63 -12 -104.5t-20 -66.5t-32 -35.5t-46 -10.5q-58 0 -104 45t-81 124q-94 -101 -214 -171q-8 11 -22.5 27.5t-25.5 26.5q136 72 237 188q-29 87 -47.5 194
t-27.5 231h-357v-135h257v-30q0 -85 -2 -144t-6.5 -98t-10.5 -60.5t-13 -31.5q-11 -14 -24 -20t-33 -8t-52 -1.5t-69 2.5q-1 15 -6 32t-13 30q36 -3 66 -3.5t44 -0.5q11 0 18.5 1.5t12.5 8.5q5 6 9 22t6.5 47t4 78t3.5 115h-192v-18q0 -52 -4 -112.5t-15 -122.5t-32 -121.5
t-55 -108.5q-8 10 -25.5 24.5t-29.5 20.5q31 46 49.5 99.5t28.5 109t12.5 110t2.5 102.5v278h420q-2 42 -3.5 85t-1.5 87h69q0 -45 1 -87.5t3 -84.5h324v-65h-319q8 -105 22.5 -196t34.5 -164q84 121 135 278zM852 668q-14 13 -35 28.5t-45.5 31.5t-50 31.5t-49.5 27.5
l39 41q24 -12 50 -26.5t50 -29.5t45.5 -30.5t36.5 -28.5z"     />

    
    <glyph glyph-name="cid18926" unicode="&#x6211;" d="M892 403q-34 -64 -78 -124t-97 -114q29 -84 64 -130.5t76 -46.5q21 0 31.5 42t15.5 139q11 -10 26.5 -20t29.5 -15q-5 -62 -12 -102.5t-20 -65.5t-31.5 -35t-45.5 -10q-60 0 -106.5 51t-81.5 141q-50 -44 -104 -82t-111 -69q-8 13 -21.5 27.5t-25.5 25.5q129 64 239 166
q-36 127 -56 295h-241v-169q45 10 90.5 20t91.5 21l5 -60l-187 -44v-231q0 -35 -9.5 -52t-31.5 -25q-23 -8 -63 -11t-102 -2q-2 14 -9.5 33.5t-15.5 33.5q49 -2 88.5 -1t52.5 1q14 1 19 5t5 18v215q-58 -14 -112 -26t-100 -23l-19 67q46 8 105.5 20.5t125.5 27.5v182h-218
v63h218v169q-48 -10 -95.5 -18t-93.5 -15q-2 12 -8.5 27.5t-12.5 27.5q52 8 107 18.5t107.5 22.5t99 25t81.5 26l48 -55q-36 -12 -78 -23.5t-89 -22.5v-182h234q-6 69 -9.5 141t-4.5 147h69q0 -77 3 -148.5t10 -139.5h297v-63h-290q8 -68 18.5 -127.5t24.5 -112.5
q42 45 77 93t61 99zM862 603q-12 18 -30 39.5t-39.5 44t-45 45t-45.5 42.5l51 34q22 -18 45.5 -40t45.5 -44t40.5 -43.5t31.5 -38.5z"     />

    
    <glyph glyph-name="cid18932" unicode="&#x6216;" d="M890 517q-66 -202 -178 -350q28 -82 63 -128t76 -46q11 0 19 10t13.5 32.5t9.5 58t6 85.5q11 -11 27.5 -21.5t30.5 -14.5q-5 -64 -12.5 -106t-20.5 -67t-32 -35.5t-47 -10.5q-59 0 -104.5 48t-80.5 133q-48 -53 -103 -98t-118 -81q-3 5 -9.5 12t-14 14t-14.5 13.5
t-13 11.5q73 38 134 88.5t113 111.5q-27 89 -44.5 198t-26.5 233h-492v66h489q-2 39 -3 78.5t-2 80.5h71q0 -83 3 -159h301v-66h-298q8 -104 21.5 -196t33.5 -167q86 129 137 288zM472 515v-300h-340v300h340zM407 457h-214v-184h214v184zM511 90q-57 -13 -115.5 -26
t-114 -25t-107 -23t-94.5 -20l-14 67q40 8 91.5 18t108.5 21.5t118 24t122 25.5zM863 680q-14 13 -34 27.5t-43 29.5t-48 28.5t-48 24.5l38 41q23 -10 48 -23t48.5 -27t44 -28t34.5 -27z"     />

    
    <glyph glyph-name="cid19023" unicode="&#x6247;" d="M658 328q15 -15 31 -31.5t31 -33.5t28 -32.5t22 -28.5l-48 -29q-9 13 -21.5 29t-27.5 33.5t-30.5 35t-30.5 32.5zM894 -3q0 -26 -6.5 -39.5t-25.5 -21.5t-51 -9t-83 -1q-2 12 -8.5 28t-11.5 28q38 -2 67.5 -1.5t38.5 0.5q11 1 14.5 4t3.5 12v129q-64 -28 -126.5 -54.5
t-114.5 -48.5l-26 55q51 17 122 45t145 58v179h-258v55h320v-418zM314 325q14 -15 29 -31.5t29 -34t26.5 -34t21.5 -29.5l-49 -27q-8 13 -20 29.5t-26 34.5t-29 35.5t-29 32.5zM530 -5q0 -25 -6.5 -38t-24.5 -21t-48.5 -9t-78.5 -1q-2 12 -8 27t-12 27q35 -2 63.5 -1.5
t37.5 0.5q16 1 16 16v123q-63 -26 -124 -51.5t-112 -47.5l-24 54q51 17 119 43.5t141 55.5v188h-228v55h289v-420zM211 487q0 -62 -4 -135t-16 -148t-33 -148t-56 -135q-9 8 -27 17.5t-31 14.5q34 60 54.5 130t31 142t13.5 142t3 130v243h331q-8 19 -18 38.5t-18 36.5l62 23
q14 -23 27.5 -50t21.5 -48h314v-253h-655zM211 679v-131h588v131h-588z"     />

    
    <glyph glyph-name="uni624B" unicode="&#x624B;" d="M949 254h-414v-233q0 -38 -12.5 -55.5t-38.5 -25.5q-27 -8 -76 -10t-129 -1q-4 14 -12.5 32.5t-16.5 32.5q65 -2 117 -1.5t69 0.5q17 1 24 7t7 22v232h-414v65h414v170h-348v64h348v160q-84 -8 -168 -14t-162 -10q-2 14 -7 31t-10 28q88 4 184.5 11.5t187.5 18t171 24.5
t136 32l49 -54q-63 -19 -143 -34t-170 -26v-167h358v-64h-358v-170h414v-65z"     />

    
    <glyph glyph-name="cid19047" unicode="&#x6253;" d="M957 684h-180v-659q0 -36 -10.5 -54.5t-36.5 -27.5q-26 -10 -73 -11.5t-119 -1.5q-2 15 -10 36t-17 36q28 -1 55 -1.5t49.5 -0.5h39.5t25 1q14 0 20.5 5.5t6.5 19.5v658h-290v66h540v-66zM423 349l-152 -47v-285q0 -31 -8 -46t-26 -23q-20 -8 -51.5 -10.5t-83.5 -2.5
q-2 14 -8 31.5t-13 31.5q37 -1 66 -1h38q20 0 20 20v264q-38 -12 -73.5 -22t-67.5 -20l-21 67q34 8 75 19t87 25v219h-153v63h153v203h66v-203h142v-63h-142v-201l143 41z"     />

    
    <glyph glyph-name="cid19171" unicode="&#x62A5;" d="M922 450q-20 -92 -58 -177t-94 -157q42 -43 89.5 -76.5t99.5 -56.5q-12 -10 -25.5 -26t-21.5 -30q-51 25 -97 60t-87 78q-39 -42 -84.5 -78t-96.5 -64q-8 12 -20.5 25t-23.5 23q53 28 98.5 64t83.5 78q-51 63 -90.5 135.5t-68.5 152.5h-34v-475h-66v876h463q-1 -6 -1 -11
v-18q-3 -53 -6 -90.5t-7 -63t-9.5 -41t-13.5 -23.5q-13 -14 -29.5 -18.5t-40.5 -6.5q-24 -1 -67.5 -0.5t-94.5 3.5q-2 14 -6.5 29t-12.5 27q25 -2 49.5 -3.5t45 -2t36 -0.5h23.5q16 0 25.5 1.5t15.5 6.5q9 10 14.5 43.5t9.5 105.5h-328v-278h374l13 3zM589 401
q25 -64 59.5 -123.5t78.5 -112.5q39 54 68 113.5t48 122.5h-254zM385 337q-30 -9 -60.5 -18.5t-61.5 -19.5v-289q0 -33 -9.5 -49t-29.5 -24q-21 -9 -57 -11t-95 -2q-2 14 -8.5 32t-14.5 32q44 -2 78 -2t45 1q13 1 18.5 5t5.5 17v271q-38 -12 -73.5 -22.5t-67.5 -19.5l-18 67
q33 8 73.5 19t85.5 24v219h-145v65h145v203h67v-203h115v-65h-115v-200q29 8 57 16.5t57 17.5z"     />

    
    <glyph glyph-name="cid19204" unicode="&#x62BD;" d="M937 606v-672h-66v64h-405v-71h-63v679h230v228h63v-228h241zM696 542v-204h175v204h-175zM466 542v-204h167v204h-167zM466 61h167v214h-167v-214zM871 61v214h-175v-214h175zM375 341l-124 -40v-297q0 -30 -7.5 -45t-25.5 -23q-19 -8 -49.5 -10t-79.5 -2q-2 13 -8.5 30
t-13.5 31q35 -1 63.5 -1h37.5q19 0 19 19v278q-37 -12 -71 -22.5t-65 -20.5l-19 65q32 9 71.5 20t83.5 25v222h-141v63h141v202h64v-202h115v-63h-115v-204l116 35z"     />

    
    <glyph glyph-name="cid19228" unicode="&#x62CC;" d="M949 217h-270v-293h-66v293h-272v62h272v160h-217v62h217v333h66v-333h237v-62h-237v-160h270v-62zM363 334q-64 -20 -123 -38v-293q0 -28 -7.5 -42.5t-24.5 -22.5t-44 -10.5t-70 -1.5q-2 12 -8 29.5t-12 30.5q29 -1 53 -1t32 1q17 0 17 16v274l-116 -36l-19 65
q28 7 62.5 17t72.5 21v226h-121v63h121v203h64v-203h105v-63h-105v-208l114 35zM484 539q-6 20 -16.5 46t-24 53.5t-29 55.5t-30.5 53l55 23q15 -24 31 -51t30 -54t25 -52.5t17 -45.5zM910 761q-12 -28 -26 -58.5t-28.5 -60t-28.5 -57t-27 -48.5l-54 18q13 22 26.5 50.5
t26.5 59t24.5 60.5t20.5 56z"     />

    
    <glyph glyph-name="cid19229" unicode="&#x62CD;" d="M905 656v-723h-68v49h-347v-56h-65v730h168q6 20 12.5 43.5t12.5 47t11 46t8 41.5l76 -9q-12 -42 -26.5 -86.5t-27.5 -82.5h246zM490 593v-239h347v239h-347zM837 45v245h-347v-245h347zM378 336l-126 -39v-291q0 -30 -8 -45.5t-27 -23.5q-19 -9 -50.5 -11t-83.5 -1
q-2 13 -8 30.5t-13 31.5q37 -1 65.5 -1t37.5 1q11 1 15.5 5t4.5 15v270l-130 -39l-18 68q31 8 68.5 17.5t79.5 21.5v222h-134v65h134v203h67v-203h117v-65h-117v-202l118 34z"     />

    
    </font>
</defs>
</svg>
